<?xml version="1.0" encoding="UTF-8"?>
<svg width="68px" height="107px" viewBox="0 0 68 107" version="1.1" xmlns="http://www.w3.org/2000/svg" xmlns:xlink="http://www.w3.org/1999/xlink">
    <!-- Generator: Sketch 49.3 (51167) - http://www.bohemiancoding.com/sketch -->
    <title>3</title>
    <desc>Created with Sketch.</desc>
    <defs></defs>
    <g id="WebimaticInvest" stroke="none" stroke-width="1" fill="none" fill-rule="evenodd">
        <g id="WebimaticInvest-desktop__Page01" transform="translate(-139.000000, -1791.000000)" fill="#EF9A3E">
            <g id="Group-17" transform="translate(0.000000, 1688.000000)">
                <g id="Group-13" transform="translate(139.000000, 100.000000)">
                    <g id="Group-15" transform="translate(0.000000, 3.000000)">
                        <path d="M0,92.8203587 L11.1985263,73.0245476 C17.0644504,79.2810328 23.5968587,82.4092284 30.7959474,82.4092284 C34.9731963,82.4092284 38.2838387,81.4072283 40.7279737,79.4031978 C43.1721087,77.3991674 44.3941579,74.9308256 44.3941579,71.9980981 C44.3941579,64.2752493 38.4838837,60.4138828 26.6631579,60.4138828 L19.9973684,60.4138828 L15.0646842,47.9498535 L27.5963684,31.3800265 C28.929533,29.62039 30.2848966,27.909658 31.6625,26.2477792 C33.0401034,24.5859003 34.0844,23.4128269 34.7954211,22.7285239 L35.8619474,21.5554388 C33.8177617,21.7509554 30.7959674,21.9953457 26.7964737,21.9953457 L3.99947368,21.9953457 L3.99947368,0 L64.1248947,0 L64.1248947,15.9832845 L44.7941053,40.471436 C51.8154386,42.1333149 57.4146458,45.7502911 61.5918947,51.3224732 C65.7691437,56.8946553 67.8577368,63.3954369 67.8577368,70.825013 C67.8577368,80.6007711 64.7692853,89.0077969 58.5922895,96.0463427 C52.4152937,103.084889 43.7276349,106.604109 32.5290526,106.604109 C19.1085294,106.604109 8.26562028,102.009571 0,92.8203587 Z" id="3"></path>
                    </g>
                </g>
            </g>
        </g>
    </g>
</svg>