<?xml version="1.0" encoding="utf-8"?>
<!-- Generator: Adobe Illustrator 21.1.0, SVG Export Plug-In . SVG Version: 6.00 Build 0)  -->
<svg version="1.1" id="Слой_1" xmlns="http://www.w3.org/2000/svg" xmlns:xlink="http://www.w3.org/1999/xlink" x="0px" y="0px"
	 viewBox="0 0 20 20" style="enable-background:new 0 0 20 20;" xml:space="preserve">
<style type="text/css">
	.st0{fill:#FFFFFF;}
</style>
<title>clock</title>
<desc>Created with Sketch.</desc>
<g id="WebimaticInvest">
	<g id="WebimaticInvest-desktop__Page02" transform="translate(-164.000000, -535.000000)">
		<g id="Group-3" transform="translate(135.000000, 288.000000)">
			<g id="Group-2" transform="translate(30.000000, 248.000000)">
				<g id="Group">
					<g id="clock">
						<path class="st0" d="M9,18.9c-5.5,0-9.9-4.4-9.9-9.9S3.5-0.9,9-0.9s9.9,4.4,9.9,9.9S14.5,18.9,9,18.9z M9,0.9
							C4.5,0.9,0.9,4.5,0.9,9c0,4.5,3.6,8.1,8.1,8.1c4.5,0,8.1-3.6,8.1-8.1C17.1,4.5,13.5,0.9,9,0.9z"/>
						<path class="st0" d="M11.7,12.6c-0.2,0-0.5-0.1-0.6-0.3L8.4,9.6C8.2,9.5,8.1,9.2,8.1,9V3.6c0-0.5,0.4-0.9,0.9-0.9
							s0.9,0.4,0.9,0.9v5l2.4,2.4c0.4,0.4,0.4,0.9,0,1.3C12.2,12.5,11.9,12.6,11.7,12.6z"/>
					</g>
				</g>
			</g>
		</g>
	</g>
</g>
</svg>
