<?xml version="1.0" encoding="UTF-8"?>
<svg width="17px" height="17px" viewBox="0 0 17 17" version="1.1" xmlns="http://www.w3.org/2000/svg" xmlns:xlink="http://www.w3.org/1999/xlink">
    <!-- Generator: Sketch 49.3 (51167) - http://www.bohemiancoding.com/sketch -->
    <title>menu</title>
    <desc>Created with Sketch.</desc>
    <defs></defs>
    <g id="Symbols" stroke="none" stroke-width="1" fill="none" fill-rule="evenodd">
        <g id="Icons-/-close-ic" transform="translate(-4.000000, -4.000000)" fill="#FFFFFF">
            <path d="M12.04666,10.7502976 L18.5284722,4.26848545 C18.8864528,3.91050485 19.466854,3.91050485 19.8248346,4.26848545 C20.1828152,4.62646605 20.1828152,5.20686728 19.8248346,5.56484788 L13.3430225,12.04666 L19.8248346,18.5284722 C20.1828152,18.8864528 20.1828152,19.466854 19.8248346,19.8248346 C19.466854,20.1828152 18.8864528,20.1828152 18.5284722,19.8248346 L12.04666,13.3430225 L5.56484788,19.8248346 C5.20686728,20.1828152 4.62646605,20.1828152 4.26848545,19.8248346 C3.91050485,19.466854 3.91050485,18.8864528 4.26848545,18.5284722 L10.7502976,12.04666 L4.26848545,5.56484788 C3.91050485,5.20686728 3.91050485,4.62646605 4.26848545,4.26848545 C4.62646605,3.91050485 5.20686728,3.91050485 5.56484788,4.26848545 L12.04666,10.7502976 Z" id="menu"></path>
        </g>
    </g>
</svg>