<?xml version="1.0" encoding="utf-8"?>
<!-- Generator: Adobe Illustrator 21.1.0, SVG Export Plug-In . SVG Version: 6.00 Build 0)  -->
<svg version="1.1" id="Слой_1" xmlns="http://www.w3.org/2000/svg" xmlns:xlink="http://www.w3.org/1999/xlink" x="0px" y="0px"
	 viewBox="0 0 22 22" style="enable-background:new 0 0 22 22;" xml:space="preserve">
<style type="text/css">
	.st0{opacity:0.16;}
</style>
<g transform="translate(1 1)">
	<path class="st0" d="M10,21C3.9,21-1,16.1-1,10S3.9-1,10-1s11,4.9,11,11S16.1,21,10,21z M10,1c-5,0-9,4-9,9c0,5,4,9,9,9
		c5,0,9-4,9-9C19,5,15,1,10,1z"/>
	<path class="st0" d="M7,14c-0.3,0-0.5-0.1-0.7-0.3c-0.4-0.4-0.4-1,0-1.4l6-6c0.4-0.4,1-0.4,1.4,0s0.4,1,0,1.4l-6,6
		C7.5,13.9,7.3,14,7,14z"/>
	<path class="st0" d="M13,14c-0.3,0-0.5-0.1-0.7-0.3l-6-6c-0.4-0.4-0.4-1,0-1.4s1-0.4,1.4,0l6,6c0.4,0.4,0.4,1,0,1.4
		C13.5,13.9,13.3,14,13,14z"/>
</g>
</svg>
