<svg height="24" viewBox="0 0 24 24" width="24" xmlns="http://www.w3.org/2000/svg"><path d="m17 14.7604712c0 .9188482-.3197619 1.6884817-.9592857 2.3089005-.6395238.6204189-1.4328572.9306283-2.38.9306283-1.0928572 0-2.0440476-.3926702-2.8535714-1.1780105l-9.43500004-9.14136123c-.91476191-.90314136-1.37214286-1.96727748-1.37214286-3.19240837 0-1.2486911.4452381-2.30890053 1.33571429-3.18062828s1.97928571-1.30759162 3.26642857-1.30759162c1.27904762 0 2.38404762.44371728 3.315 1.33115183l7.34642854 7.13874346c.0809524.07853403.1214286.16492146.1214286.2591623 0 .12565445-.1234524.30824607-.3703571.54777487-.2469048.2395288-.4351191.35929319-.5646429.35929319-.1052381 0-.1983333-.03926701-.2792857-.11780104l-7.35857144-7.15052356c-.63952381-.60471204-1.37214286-.90706807-2.19785715-.90706807-.85809523 0-1.58261904.29450262-2.17357142.88350786-.59095239.58900523-.88642858 1.29973822-.88642858 2.13219895 0 .82460733.30761905 1.53534031.92285715 2.13219895l9.42285714 9.15314136c.51.4947644 1.0969048.7421466 1.7607143.7421466.5180952 0 .9471428-.1649215 1.2871428-.4947644s.51-.7460733.51-1.2486911c0-.6439791-.255-1.2133508-.765-1.7081152l-7.05499996-6.84424082c-.21047619-.18848167-.45333333-.28272251-.72857143-.28272251-.2347619 0-.42904761.07460733-.58285714.22382199-.15380952.14921466-.23071428.33769633-.23071428.56544503 0 .2513089.10119047.48298429.30357142.69502617l4.97857139 4.82984294c.0809524.078534.1214286.1649215.1214286.2591623 0 .1256544-.1254762.3102094-.3764286.5536649-.2509523.2434555-.4411904.3651833-.5707142.3651833-.0971429 0-.1861905-.039267-.2671429-.1178011l-4.97857143-4.82984291c-.51-.47905759-.765-1.06413613-.765-1.7552356 0-.64397906.23071429-1.18979058.69214286-1.63743456s1.02404762-.67146597 1.68785714-.67146597c.71238095 0 1.31547619.2473822 1.80928572.7421466l7.05500001 6.84424084c.8095238.7696335 1.2142857 1.6924084 1.2142857 2.7683246z" fill="#ef9a3e" transform="translate(4 3)"/></svg>