<?xml version="1.0" encoding="utf-8"?>
<!-- Generator: Adobe Illustrator 21.1.0, SVG Export Plug-In . SVG Version: 6.00 Build 0)  -->
<svg version="1.1" id="Слой_1" xmlns="http://www.w3.org/2000/svg" xmlns:xlink="http://www.w3.org/1999/xlink" x="0px" y="0px"
	 viewBox="0 0 32 33" style="enable-background:new 0 0 32 33;" xml:space="preserve">
<style type="text/css">
	.st0{fill:#EF9A3E;}
	.st1{fill:#FFFFFF;}
</style>
<g>
	<path class="st0" d="M16,0.7L16,0.7c8.8,0,16,7.2,16,16l0,0c0,8.8-7.2,16-16,16l0,0c-8.8,0-16-7.2-16-16l0,0C0,7.8,7.2,0.7,16,0.7z
		"/>
	<g transform="translate(10 10.65641)">
		<path class="st1" d="M7.4,9c-0.1,0-0.2,0-0.3,0C6,8.9,5,8.3,4.4,7.4C4.1,7.1,4.2,6.7,4.5,6.5c0.3-0.2,0.7-0.1,0.9,0.1
			c0.4,0.6,1.1,1,1.9,1c0.7,0.1,1.5-0.2,2-0.8L11.1,5c1-1,0.9-2.6,0-3.6c-1-1-2.6-1-3.6,0L6.4,2.4c-0.2,0.2-0.6,0.2-0.9,0
			c-0.2-0.2-0.2-0.6,0-0.9l1.1-1.1C8.1-1,10.5-1,12,0.5c1.5,1.5,1.5,3.9,0,5.4l-1.9,1.9C9.4,8.5,8.4,9,7.4,9z"/>
		<path class="st1" d="M3.2,13.1c-1,0-2-0.4-2.7-1.1C-1,10.5-1,8.1,0.4,6.6l1.9-1.9c0.8-0.8,1.9-1.2,3-1.1c1.1,0.1,2.1,0.6,2.8,1.5
			C8.3,5.4,8.3,5.7,8,6C7.7,6.2,7.3,6.1,7.1,5.8c-0.4-0.6-1.1-1-1.9-1C4.5,4.7,3.8,5,3.3,5.5L1.3,7.5c-1,1-0.9,2.6,0,3.6
			c1,1,2.6,1,3.6,0L6.1,10c0.2-0.2,0.6-0.2,0.9,0c0.2,0.2,0.2,0.6,0,0.9L5.9,12C5.1,12.7,4.2,13.1,3.2,13.1z"/>
	</g>
</g>
</svg>
