<?xml version="1.0" encoding="UTF-8"?>
<svg width="22px" height="14px" viewBox="0 0 22 14" version="1.1" xmlns="http://www.w3.org/2000/svg" xmlns:xlink="http://www.w3.org/1999/xlink">
    <!-- Generator: Sketch 49.3 (51167) - http://www.bohemiancoding.com/sketch -->
    <title>menu</title>
    <desc>Created with Sketch.</desc>
    <defs></defs>
    <g id="Symbols" stroke="none" stroke-width="1" fill="none" fill-rule="evenodd">
        <g id="Icons-/-menu-ic" transform="translate(-1.000000, -5.000000)" fill="#FFFFFF">
            <path d="M1.91666667,5 L22.0833333,5 C22.5895944,5 23,5.41040565 23,5.91666667 C23,6.42292769 22.5895944,6.83333333 22.0833333,6.83333333 L1.91666667,6.83333333 C1.41040565,6.83333333 1,6.42292769 1,5.91666667 C1,5.41040565 1.41040565,5 1.91666667,5 Z M1.91666667,10.8333333 L18.0833333,10.8333333 C18.5895944,10.8333333 19,11.243739 19,11.75 C19,12.256261 18.5895944,12.6666667 18.0833333,12.6666667 L1.91666667,12.6666667 C1.41040565,12.6666667 1,12.256261 1,11.75 C1,11.243739 1.41040565,10.8333333 1.91666667,10.8333333 Z M1.91666667,16.6666667 L14.0833333,16.6666667 C14.5895944,16.6666667 15,17.0770723 15,17.5833333 C15,18.0895944 14.5895944,18.5 14.0833333,18.5 L1.91666667,18.5 C1.41040565,18.5 1,18.0895944 1,17.5833333 C1,17.0770723 1.41040565,16.6666667 1.91666667,16.6666667 Z" id="menu"></path>
        </g>
    </g>
</svg>