<svg height="24" viewBox="0 0 24 24" width="24" xmlns="http://www.w3.org/2000/svg"><path d="m12.4789375 10.1569219c.7144375-1.05546096 1.1460625-2.38440237 1.1460625-3.8287969 0-3.49484766-2.5183125-6.328125-5.625-6.328125-3.10653125 0-5.625 2.83310156-5.625 6.328125 0 1.44397266.4314375 2.77305469 1.1460625 3.8287969-1.9576875.2611406-3.5210625 2.1354961-3.5210625 4.4680781v1.0019531c0 1.3085157.94625 2.3730469 2.109375 2.3730469h11.78125c1.163125 0 2.109375-1.0645312 2.109375-2.3730469v-1.0019531c0-2.3334609-1.564125-4.207043-3.5210625-4.4680781zm-4.4789375-8.4694219c2.2781875 0 4.125 2.07766406 4.125 4.640625s-1.8468125 4.640625-4.125 4.640625-4.125-2.07766406-4.125-4.640625 1.8468125-4.640625 4.125-4.640625zm6.5 13.9394531c0 .3786328-.2728125.6855469-.609375.6855469h-11.78125c-.3365625 0-.609375-.3069141-.609375-.6855469v-1.0019531c0-1.5533086 1.11928125-2.8125 2.5-2.8125h1.191875c1.7339375 1.123875 3.8758125 1.1280586 5.61625 0h1.191875c1.3807187 0 2.5 1.2591914 2.5 2.8125z" fill="#ccc" transform="translate(4 3)"/></svg>