<svg height="32" viewBox="0 0 32 32" width="32" xmlns="http://www.w3.org/2000/svg"><g fill="none" fill-rule="evenodd"><rect fill="#ef9a3e" height="32" rx="16" width="32"/><path d="m13.859 20.691-.81.805c-.701.695-1.843.695-2.545 0-.336-.334-.521-.779-.521-1.252s.186-.916.521-1.252l2.98-2.955c.617-.613 1.779-1.515 2.626-.675.389.386 1.016.384 1.403-.005.385-.389.383-1.017-.006-1.402-1.438-1.428-3.566-1.164-5.419.675l-2.98 2.956c-.715.709-1.108 1.654-1.108 2.658 0 1.006.394 1.949 1.108 2.658.736.73 1.702 1.096 2.669 1.096s1.934-.365 2.669-1.096l.811-.805c.389-.385.391-1.012.005-1.4-.387-.388-1.014-.39-1.403-.006zm9.032-11.484c-1.547-1.534-3.709-1.617-5.139-.197l-1.009 1.002c-.389.386-.392 1.013-.006 1.401.386.389 1.013.391 1.402.005l1.01-1.001c.74-.736 1.711-.431 2.346.197.336.335.522.779.522 1.252s-.186.917-.522 1.251l-3.18 3.154c-1.454 1.441-2.136.766-2.427.477-.389-.386-1.016-.383-1.401.005-.386.389-.384 1.017.005 1.401.668.662 1.43.99 2.228.99.977 0 2.01-.492 2.993-1.467l3.18-3.153c.712-.71 1.107-1.654 1.107-2.658 0-1.005-.395-1.949-1.109-2.659z" fill="#fff" fill-rule="nonzero"/></g></svg>