<svg height="125" viewBox="0 0 112 125" width="112" xmlns="http://www.w3.org/2000/svg"><g fill="none" fill-rule="evenodd" transform=""><path d="m62.2098798 1.94754655 42.8184652 24.68276725c4.005631 2.309052 6.473877 6.5808527 6.473877 11.2043581v49.3306562c0 4.6235054-2.468246 8.8953061-6.473877 11.2043581l-42.8184652 24.6827668c-3.9975332 2.304384-8.9200041 2.304384-12.9175374 0l-42.81846508-24.6827668c-4.00563114-2.309052-6.47387732-6.5808527-6.47387732-11.2043581v-49.3306562c0-4.6235054 2.46824618-8.8953061 6.47387732-11.2043581l42.81846508-24.68276725c3.9975333-2.30438393 8.9200042-2.30438393 12.9175374 0z" fill="#fef7e5"/><g stroke="#ef9a3e" stroke-linecap="round" stroke-linejoin="round" stroke-width="3.584" transform="translate(38.08 47.991071)"><path d="m3.584 0h28.672c1.9712 0 3.584 1.638 3.584 3.64v21.84c0 2.002-1.6128 3.64-3.584 3.64h-28.672c-1.9712 0-3.584-1.638-3.584-3.64v-21.84c0-2.002 1.6128-3.64 3.584-3.64z"/><path d="m35.84 3.64-17.92 12.74-17.92-12.74"/></g></g></svg>