<svg height="45" viewBox="0 0 107 45" width="107" xmlns="http://www.w3.org/2000/svg">
    <g fill="none" fill-rule="evenodd">
        <path d="M60.176 30.16L56 13h4.416l2.16 10.728c.064.32.116.628.156.924s.06.516.06.66v.216h.048c.016-.496.112-1.096.288-1.8L65.768 13h3.384l2.568 10.728c.08.32.144.628.192.924s.08.516.096.66v.216h.048c0-.496.072-1.096.216-1.8L74.624 13h4.344l-4.344 17.16h-4.68l-2.16-8.664-.336-2.016H67.4c-.048.608-.16 1.28-.336 2.016l-2.16 8.664zm20.136 0L81.728 13h4.56l2.496 7.248.864 2.832h.048c.32-1.152.608-2.096.864-2.832L93.056 13h4.56l1.392 17.16h-4.2l-.528-7.728c-.032-.384-.048-.816-.048-1.296s.008-.864.024-1.152l.024-.432h-.048a99.68 99.68 0 0 1-.96 2.88l-1.8 4.968h-3.6l-1.8-4.968-.96-2.88h-.048a21.57 21.57 0 0 1 0 2.88l-.528 7.728zm21.648 0V13h4.2v17.16z" fill="#161c28"/>
        <g fill-rule="nonzero">
            <g fill="#161c28">
                <path d="M29.875 13.05c-2.05-3.586-4.088-7.172-6.176-10.73-.167-.28-.685-.487-1.041-.498-1.893-.04-3.792-.04-5.685-.017a2.961 2.961 0 0 0-2.6-1.55 2.966 2.966 0 0 0-2.958 2.971c0 1.64 1.326 2.97 2.957 2.97a2.956 2.956 0 0 0 2.584-1.527c1.347 0 2.662 0 3.976.017.356.006.868.067 1.036.302.55.772.974 1.634 1.553 2.64h-1.403c-3.107 0-6.215-.01-9.322.018-.395.005-.963.05-1.152.302-.54.732-.925 1.577-1.47 2.562h1.336c3.809 0 7.618.09 11.42-.045 1.683-.056 2.796.336 3.414 1.975.145.386.624.833 1.014.9.818.14 1.676.045 2.511.045.006-.19.04-.285.006-.336zM15.44 4.663c-.3.224-.673.358-1.074.358a1.8 1.8 0 0 1-1.793-1.801 1.8 1.8 0 0 1 1.793-1.802A1.799 1.799 0 0 1 16.16 3.22a1.783 1.783 0 0 1-.719 1.444z"/>
                <path d="M20.007 38.827c-1.76-3.39-3.446-6.824-5.323-10.153-.83-1.471-.997-2.646.161-3.95.273-.307.446-.945.323-1.314-.256-.794-.735-1.51-1.124-2.255-.162.073-.257.09-.29.14-2.216 3.48-4.438 6.96-6.61 10.467-.172.28-.117.84.045 1.158.84 1.7 1.715 3.385 2.606 5.063a2.954 2.954 0 0 0-.557 1.734c0 1.64 1.325 2.97 2.957 2.97s2.957-1.33 2.957-2.97a2.967 2.967 0 0 0-2.784-2.965c-.635-1.225-1.253-2.417-1.86-3.62-.162-.318-.34-.805-.212-1.062.423-.845.991-1.623 1.61-2.602.294.571.473.907.65 1.248 1.438 2.77 2.869 5.538 4.328 8.296.183.353.49.84.796.884.896.14 1.82.095 2.94.123-.262-.52-.434-.856-.613-1.192zm-6.899-.67s.006 0 0 0c.53.312.886.894.886 1.554a1.8 1.8 0 0 1-1.794 1.802 1.803 1.803 0 0 1-1.715-2.327 1.794 1.794 0 0 1 2.623-1.03z"/>
                <path d="M45.015 20.686a2.966 2.966 0 0 0-2.957 2.97c0 .632.195 1.22.535 1.7-.58.963-1.153 1.903-1.732 2.837-.19.302-.512.71-.796.733-.941.073-1.893-.011-3.052-.034.329-.548.53-.878.73-1.203 1.61-2.668 3.23-5.336 4.822-8.016.2-.341.457-.856.34-1.147-.345-.845-.863-1.61-1.42-2.59-.306.504-.501.828-.69 1.147-1.972 3.272-4.027 6.5-5.886 9.834-.819 1.472-1.732 2.227-3.447 1.908-.407-.073-1.036.106-1.292.403-.54.632-.902 1.415-1.337 2.137.145.1.206.179.268.179 4.11.1 8.224.207 12.334.257.323.006.774-.335.963-.638.947-1.493 1.86-3.01 2.762-4.53a2.966 2.966 0 0 0 2.807-2.966 2.96 2.96 0 0 0-2.952-2.981zm.986 4.475a1.75 1.75 0 0 1-.986.296 1.8 1.8 0 0 1-1.793-1.8c0-.88.63-1.618 1.465-1.774.01-.017.022-.04.039-.062.01.017.016.034.028.05.089-.01.178-.022.267-.022a1.8 1.8 0 0 1 1.793 1.801A1.819 1.819 0 0 1 46 25.16z"/>
            </g>
            <path d="M36.73 34.056c-3.804-.123-7.613-.336-11.416-.325-1.682.006-2.784-.425-3.346-2.08-.134-.392-.602-.857-.986-.93-.813-.162-1.67-.095-2.511-.123-.017.18-.05.269-.023.325 1.933 3.647 3.86 7.3 5.83 10.925.156.286.669.51 1.025.532 1.804.095 3.608.15 5.413.196a2.968 2.968 0 0 0 2.75 1.88c1.632 0 2.957-1.332 2.957-2.971s-1.325-2.97-2.957-2.97a2.94 2.94 0 0 0-2.377 1.208 417.3 417.3 0 0 1-3.97-.146c-.357-.017-.87-.095-1.025-.336-.524-.788-.925-1.661-1.465-2.69.64.022 1.02.033 1.403.044 3.108.101 6.215.207 9.322.286.395.01.969-.017 1.158-.263.563-.716.975-1.55 1.554-2.512-.585-.022-.963-.034-1.337-.05zm-3.837 5.717c.184-.062.378-.1.584-.1.246 0 .474.05.691.14.128.005.25.005.379.01-.028.05-.056.095-.09.146.49.324.814.878.814 1.51a1.8 1.8 0 0 1-1.794 1.801 1.79 1.79 0 0 1-1.403-.682 1.783 1.783 0 0 1-.39-1.119 1.785 1.785 0 0 1 1.209-1.706z" fill="#ef9a3e"/>
            <path d="M19.813 12.462c-4.104-.23-8.214-.47-12.323-.649-.323-.017-.78.308-.986.61a192.491 192.491 0 0 0-3.14 4.817 2.966 2.966 0 0 0-3.335 2.948c-.001 1.639 1.324 2.97 2.956 2.97a2.966 2.966 0 0 0 2.678-4.223c.774-1.192 1.526-2.35 2.283-3.497.195-.296.535-.693.819-.71.94-.045 1.893.067 3.046.134-.351.537-.557.862-.763 1.18-1.693 2.618-3.397 5.23-5.073 7.86-.212.336-.485.84-.379 1.136.318.856.813 1.639 1.337 2.635.317-.493.523-.811.73-1.125 2.076-3.205 4.231-6.366 6.191-9.639.869-1.448 1.804-2.17 3.508-1.795.401.09 1.036-.073 1.303-.364.563-.615.947-1.387 1.404-2.092-.14-.118-.195-.19-.256-.196zM4.778 20.305a1.798 1.798 0 0 1-1.788 1.678 1.8 1.8 0 0 1-1.793-1.8A1.805 1.805 0 0 1 2.99 18.38a1.8 1.8 0 0 1 1.793 1.801c-.005.04-.005.084-.005.123z" fill="#ef9a3e"/>
            <path d="M41.062 10.689A189.921 189.921 0 0 0 38.35 5.81a2.984 2.984 0 0 0 .507-1.662c0-1.639-1.326-2.97-2.957-2.97s-2.957 1.331-2.957 2.97c0 1.606 1.28 2.92 2.868 2.97.657 1.175 1.297 2.317 1.92 3.463.173.314.368.795.246 1.058-.396.861-.936 1.656-1.526 2.651-.312-.559-.501-.895-.69-1.225-1.526-2.718-3.04-5.443-4.589-8.156-.195-.347-.518-.822-.824-.862-.902-.111-1.826-.033-2.946-.028.29.515.474.84.657 1.17 1.871 3.334 3.659 6.713 5.641 9.974.874 1.443 1.08 2.613-.039 3.955-.261.32-.417.957-.284 1.326.284.783.785 1.488 1.197 2.22.162-.077.257-.094.284-.15 2.105-3.552 4.216-7.1 6.276-10.674.173-.274.1-.833-.072-1.152zm-3.425-6.076a1.796 1.796 0 0 1-2.606 1.12 1.806 1.806 0 0 1-.924-1.578v-.067A1.805 1.805 0 0 1 35.9 2.353a1.8 1.8 0 0 1 1.793 1.802c.005.156-.017.307-.056.458z" fill="#ef9a3e"/>
            <path d="M26.504 28v-6.327l2.746.007L23.992 16l-5.242 5.655 2.747.007V28z" fill="#161c28"/>
        </g>
    </g>
</svg>
