<svg height="64" viewBox="0 0 64 64" width="64" xmlns="http://www.w3.org/2000/svg">
    <g fill="none">
        <g fill="#161c28">
            <path d="M39.833 20.066c-2.732-4.781-5.45-9.562-8.234-14.306-.223-.373-.913-.65-1.388-.664a233.476 233.476 0 0 0-7.58-.022 3.948 3.948 0 0 0-3.468-2.067c-2.176 0-3.943 1.776-3.943 3.961s1.767 3.96 3.943 3.96c1.477 0 2.77-.82 3.445-2.035 1.797 0 3.549 0 5.301.022.475.007 1.158.09 1.381.403.735 1.029 1.3 2.178 2.071 3.52h-1.87c-4.143 0-8.286-.015-12.43.023-.526.007-1.284.067-1.536.402-.72.978-1.233 2.104-1.96 3.417h1.782c5.078 0 10.156.119 15.227-.06 2.243-.075 3.728.448 4.552 2.633.193.515.831 1.111 1.351 1.2 1.091.187 2.235.06 3.349.06.007-.253.051-.38.007-.447zM20.588 8.886c-.4.297-.898.476-1.433.476a2.4 2.4 0 0 1-2.39-2.401 2.4 2.4 0 0 1 2.39-2.402c.602 0 1.151.224 1.567.59.505.44.824 1.088.824 1.812a2.378 2.378 0 0 1-.958 1.924z"/>
            <path d="M26.677 54.437c-2.347-4.52-4.596-9.1-7.098-13.538-1.107-1.962-1.33-3.528.215-5.266.364-.41.594-1.26.43-1.753-.34-1.06-.98-2.014-1.5-3.006-.214.097-.34.12-.385.186-2.955 4.64-5.918 9.28-8.813 13.956-.23.373-.156 1.119.06 1.544a262.97 262.97 0 0 0 3.474 6.75 3.938 3.938 0 0 0-.743 2.313c0 2.185 1.767 3.96 3.943 3.96s3.942-1.775 3.942-3.96c0-2.104-1.64-3.834-3.712-3.954-.846-1.633-1.67-3.222-2.48-4.826-.215-.425-.453-1.074-.282-1.417.564-1.126 1.322-2.163 2.146-3.468.393.76.63 1.208.868 1.663 1.916 3.692 3.824 7.385 5.77 11.062.244.47.653 1.119 1.061 1.178 1.195.187 2.428.127 3.92.164a77.869 77.869 0 0 0-.816-1.588zm-9.2-.895s.008 0 0 0a2.412 2.412 0 0 1 1.181 2.073c0 1.328-1.077 2.402-2.39 2.402a2.405 2.405 0 0 1-2.287-3.103 2.392 2.392 0 0 1 3.496-1.372z"/>
            <path d="M60.02 30.247c-2.175 0-3.942 1.776-3.942 3.961 0 .843.26 1.626.713 2.268a336.716 336.716 0 0 1-2.31 3.781c-.252.403-.682.948-1.061.977-1.255.097-2.524-.015-4.069-.044.438-.731.706-1.171.973-1.604 2.146-3.558 4.306-7.116 6.43-10.689.267-.455.608-1.14.452-1.529-.46-1.126-1.15-2.148-1.893-3.453-.408.671-.668 1.104-.92 1.529-2.629 4.363-5.368 8.667-7.848 13.113-1.092 1.961-2.31 2.968-4.596 2.543-.542-.097-1.381.142-1.723.537-.72.843-1.202 1.887-1.781 2.85.193.134.274.238.356.238 5.48.134 10.966.276 16.445.343.431.008 1.032-.447 1.285-.85a237.976 237.976 0 0 0 3.682-6.042 3.955 3.955 0 0 0 3.742-3.953c.008-2.2-1.76-3.976-3.935-3.976zm1.315 5.968a2.334 2.334 0 0 1-1.315.395 2.401 2.401 0 0 1-2.286-1.693 2.478 2.478 0 0 1-.104-.709c0-1.171.839-2.156 1.952-2.364.015-.023.03-.053.052-.082.015.022.023.044.037.067a2.87 2.87 0 0 1 .357-.03 2.4 2.4 0 0 1 2.39 2.402 2.425 2.425 0 0 1-1.083 2.014z"/>
        </g>
        <path d="M48.973 48.074c-5.071-.164-10.15-.447-15.22-.432-2.243.007-3.713-.567-4.463-2.775-.178-.522-.802-1.141-1.314-1.238-1.084-.217-2.228-.127-3.349-.164-.022.238-.066.358-.03.432 2.577 4.863 5.146 9.734 7.774 14.567.208.38.891.68 1.366.71 2.406.126 4.811.2 7.217.26a3.957 3.957 0 0 0 3.668 2.506c2.175 0 3.942-1.775 3.942-3.96 0-2.186-1.767-3.961-3.942-3.961a3.92 3.92 0 0 0-3.17 1.611c-1.797-.06-3.55-.12-5.294-.194-.475-.022-1.158-.127-1.366-.447-.698-1.052-1.233-2.216-1.953-3.588.854.03 1.359.045 1.871.06 4.143.134 8.286.276 12.429.38.527.015 1.292-.022 1.544-.35.75-.955 1.3-2.067 2.072-3.35-.78-.03-1.285-.044-1.782-.067zm-5.116 7.623c.245-.082.505-.134.78-.134.326 0 .63.067.92.186.171.008.334.008.505.015a2.724 2.724 0 0 1-.119.194 2.409 2.409 0 0 1 1.084 2.014 2.4 2.4 0 0 1-2.39 2.402 2.387 2.387 0 0 1-1.871-.91 2.377 2.377 0 0 1-.52-1.492 2.38 2.38 0 0 1 1.611-2.275z" fill="#ef9a3e"/>
        <path d="M26.417 19.283c-5.472-.306-10.952-.627-16.43-.865-.432-.023-1.04.41-1.315.813a256.655 256.655 0 0 0-4.188 6.422 3.748 3.748 0 0 0-.504-.03c-2.176 0-3.943 1.775-3.943 3.96s1.767 3.961 3.943 3.961c2.175 0 3.942-1.775 3.942-3.96 0-.597-.134-1.164-.371-1.671 1.032-1.589 2.034-3.133 3.044-4.662.26-.395.713-.925 1.091-.947 1.255-.06 2.525.09 4.062.179-.468.716-.743 1.148-1.018 1.574-2.257 3.49-4.529 6.974-6.763 10.48-.283.447-.646 1.118-.505 1.513.423 1.142 1.084 2.186 1.782 3.514.423-.657.698-1.082.972-1.5 2.77-4.274 5.643-8.488 8.256-12.851 1.159-1.932 2.406-2.894 4.678-2.395.534.12 1.38-.097 1.737-.484.75-.821 1.262-1.85 1.871-2.79-.185-.157-.26-.254-.341-.261zM6.37 29.74a2.398 2.398 0 0 1-2.383 2.238 2.4 2.4 0 0 1-2.39-2.402 2.407 2.407 0 0 1 2.39-2.402 2.4 2.4 0 0 1 2.39 2.402c-.007.052-.007.112-.007.164z" fill="#ef9a3e"/>
        <path d="M54.749 16.918a253.228 253.228 0 0 0-3.616-6.504A3.979 3.979 0 0 0 51.81 8.2c0-2.186-1.767-3.96-3.943-3.96s-3.942 1.774-3.942 3.96a3.966 3.966 0 0 0 3.824 3.96c.876 1.567 1.73 3.089 2.561 4.618.23.417.49 1.059.327 1.41-.527 1.148-1.248 2.207-2.035 3.535-.415-.746-.668-1.194-.92-1.634-2.035-3.625-4.054-7.257-6.118-10.875-.26-.462-.69-1.096-1.099-1.148-1.203-.15-2.435-.045-3.928-.038.387.687.632 1.12.877 1.56 2.494 4.445 4.877 8.95 7.52 13.298 1.166 1.925 1.441 3.484-.051 5.274-.35.425-.557 1.275-.379 1.768.379 1.044 1.047 1.984 1.596 2.96.216-.104.342-.126.379-.2 2.806-4.737 5.62-9.466 8.367-14.232.23-.366.134-1.112-.096-1.537zm-4.566-8.1a2.394 2.394 0 0 1-3.475 1.492 2.409 2.409 0 0 1-1.232-2.104v-.09a2.406 2.406 0 0 1 2.39-2.311 2.4 2.4 0 0 1 2.391 2.401c.008.21-.022.41-.074.612z" fill="#ef9a3e"/>
        <path d="M35.339 40v-8.436l3.661.009L31.99 24 25 31.54l3.662.009V40z" fill="#161c28"/>
    </g>
</svg>
