<svg height="52" viewBox="0 0 292 52" width="292" xmlns="http://www.w3.org/2000/svg">
    <g fill="none" fill-rule="evenodd">
        <g fill="#161c28">
            <path d="M71.049 21.563L66.351 2.258h4.968l2.43 12.069c.072.36.13.706.176 1.039.045.333.067.58.067.743v.243h.054c.018-.559.126-1.233.324-2.025l2.97-12.07h3.807l2.889 12.07c.09.36.162.706.216 1.039s.09.58.108.743v.243h.054c0-.559.081-1.233.243-2.025l2.646-12.07h4.887l-4.887 19.305h-5.265l-2.43-9.747-.378-2.267h-.054c-.054.684-.18 1.44-.378 2.267l-2.43 9.748zm22.167-6.966c0-2.089.657-3.821 1.971-5.198 1.314-1.377 3.069-2.066 5.265-2.066 1.998 0 3.568.626 4.712 1.877 1.143 1.251 1.714 2.866 1.714 4.846 0 .325-.036.81-.108 1.459h-8.775c.162.81.544 1.426 1.147 1.849s1.301.634 2.093.634c1.152 0 2.43-.467 3.834-1.404l1.728 3.267c-.738.63-1.642 1.125-2.713 1.485s-2.147.54-3.227.54c-2.358 0-4.221-.72-5.589-2.16s-2.052-3.15-2.052-5.13zm4.887-1.756h4.158c0-.594-.175-1.088-.526-1.484s-.815-.594-1.391-.594c-1.188 0-1.935.692-2.241 2.079zm11.205 8.722V2.258h4.671V7.63l-.054 1.188h.054c.396-.45.94-.81 1.634-1.08s1.399-.405 2.119-.405c1.89 0 3.406.67 4.55 2.011 1.143 1.341 1.714 3.1 1.714 5.278s-.612 3.933-1.836 5.266-2.772 1.998-4.644 1.998c-1.674 0-2.97-.55-3.888-1.647h-.054c.018.234.027.494.027.783v.54zm4.536-6.858c0 .9.238 1.678.716 2.335s1.147.986 2.011.986c.774 0 1.422-.297 1.944-.891s.783-1.404.783-2.43-.252-1.854-.756-2.484c-.504-.63-1.161-.945-1.971-.945-.774 0-1.422.287-1.944.864-.522.576-.783 1.43-.783 2.565zm12.609-8.803V2.257h4.563v3.645zm-.054 15.66V7.658h4.671v13.905zm7.803 0V7.658h4.482v1.216l-.054.864h.054c1.062-1.603 2.439-2.403 4.131-2.403 1.872 0 3.168.782 3.888 2.349h.054c.396-.649.994-1.202 1.796-1.661a5.254 5.254 0 0 1 2.659-.689c1.368 0 2.461.414 3.28 1.242s1.229 2.151 1.229 3.97v9.018h-4.671v-8.235c0-1.17-.36-1.755-1.08-1.755-.936 0-1.615.391-2.038 1.174-.424.783-.635 1.76-.635 2.93v5.886h-4.671v-8.235c0-1.17-.36-1.755-1.08-1.755-.972 0-1.66.395-2.066 1.188-.405.792-.607 1.763-.607 2.916v5.886zm23.571-3.915c0-.882.243-1.646.729-2.294s1.13-1.143 1.93-1.485 1.634-.59 2.498-.743 1.764-.23 2.7-.23h.405v-.242c0-1.027-.657-1.54-1.971-1.54-1.224 0-2.502.441-3.834 1.324l-1.62-3.294c.63-.487 1.498-.91 2.605-1.27s2.201-.54 3.281-.54c1.926 0 3.442.504 4.55 1.513s1.66 2.393 1.66 4.158v8.559h-4.266v-.837l.054-.864h-.054c-.45.63-1.048 1.124-1.796 1.485s-1.525.54-2.335.54c-1.332 0-2.421-.405-3.267-1.216-.846-.81-1.269-1.817-1.269-3.024zm4.617-.431c0 .342.117.625.351.85s.558.338.972.338c.648 0 1.206-.261 1.674-.783s.702-1.08.702-1.674v-.378h-.432c-.864 0-1.624.13-2.281.391s-.986.68-.986 1.256zm12.096-.783v-4.887h-1.782V7.9h1.917V3.905h4.536V7.9h2.916v3.645h-2.916v4.266c0 1.188.828 1.782 2.484 1.782.216 0 .423-.01.621-.028v4.05c-.702.055-1.125.081-1.269.081-.432 0-.85-.022-1.256-.067s-.872-.13-1.404-.257-1.007-.314-1.43-.567-.824-.562-1.202-.931-.675-.85-.891-1.444-.324-1.26-.324-1.999zm10.341-10.53V2.258h4.563v3.645zm-.054 15.66V7.658h4.671v13.904zm7.02-6.966c0-1.98.697-3.686 2.092-5.117 1.396-1.431 3.281-2.147 5.657-2.147 1.044 0 2.065.176 3.064.527 1 .351 1.823.877 2.471 1.58l-1.971 3.131c-.936-.9-2.025-1.35-3.267-1.35-1.044 0-1.858.329-2.443.986-.586.657-.878 1.435-.878 2.335 0 .919.306 1.724.918 2.417s1.467 1.04 2.565 1.04c1.242 0 2.511-.558 3.807-1.674l1.701 3.267c-.684.702-1.561 1.26-2.632 1.674s-2.183.62-3.335.62c-2.376 0-4.261-.71-5.657-2.133s-2.092-3.14-2.092-5.157zm22.896 6.965V2.258h4.725v19.305zm8.316 0V7.658h4.482v1.216l-.054.864h.054c.954-1.603 2.43-2.403 4.428-2.403 3.33 0 4.995 1.736 4.995 5.21v9.019h-4.671v-8.154c0-1.225-.513-1.837-1.539-1.837-.99 0-1.741.351-2.254 1.054-.514.702-.77 1.583-.77 2.645v6.291zm20.223 0l-4.806-13.905h4.914l2.16 7.399.513 2.403h.054c.162-.99.333-1.791.513-2.403l2.133-7.398h4.941l-4.725 13.904zm11.34-6.966c0-2.088.657-3.82 1.971-5.197 1.314-1.377 3.069-2.066 5.265-2.066 1.998 0 3.568.626 4.712 1.877 1.143 1.251 1.714 2.866 1.714 4.846 0 .325-.036.81-.108 1.459h-8.775c.162.81.544 1.426 1.147 1.849s1.301.634 2.093.634c1.152 0 2.43-.467 3.834-1.404l1.728 3.267c-.738.63-1.642 1.125-2.714 1.485s-2.146.54-3.226.54c-2.358 0-4.221-.72-5.589-2.16s-2.052-3.15-2.052-5.13zm4.887-1.755h4.158c0-.594-.175-1.088-.526-1.484s-.815-.594-1.391-.594c-1.188 0-1.935.692-2.241 2.079zm10.152 6.994l1.998-3.052c1.116.937 2.376 1.404 3.78 1.404.846 0 1.269-.242 1.269-.729 0-.27-.225-.508-.675-.715s-.99-.418-1.62-.634-1.264-.482-1.904-.797-1.183-.778-1.633-1.39-.675-1.341-.675-2.188c0-1.386.544-2.465 1.633-3.24s2.471-1.16 4.145-1.16c1.998 0 3.654.53 4.968 1.593l-1.593 3.24c-.396-.325-.931-.594-1.607-.81s-1.309-.324-1.903-.324c-.864 0-1.296.224-1.296.675 0 .216.162.418.486.607s.724.351 1.201.486 1 .324 1.566.567 1.09.513 1.566.81.878.72 1.202 1.269.486 1.174.486 1.877c0 1.332-.517 2.425-1.553 3.28s-2.425 1.283-4.171 1.283c-2.25 0-4.14-.684-5.67-2.052zm14.58-3.403v-4.887h-1.782V7.9h1.917V3.904h4.536V7.9h2.916v3.645h-2.916v4.266c0 1.189.828 1.782 2.484 1.782.216 0 .423-.008.621-.027v4.05c-.702.055-1.125.081-1.269.081-.432 0-.85-.022-1.256-.067s-.872-.13-1.404-.257-1.007-.314-1.43-.567-.824-.562-1.202-.931-.675-.85-.891-1.444-.324-1.26-.324-1.999z"/>
            <path d="M72.504 35.468h.227a4.5 4.5 0 0 1 2.205.564c.664.37 1.18.882 1.549 1.534.368.652.553 1.38.553 2.186 0 .811-.186 1.546-.557 2.205a3.973 3.973 0 0 1-1.538 1.542 4.483 4.483 0 0 1-2.183.567h-.256v1.436h-1.362v-1.436h-.205c-.816 0-1.557-.185-2.223-.556s-1.184-.884-1.553-1.538c-.369-.655-.553-1.39-.553-2.205 0-.815.184-1.55.553-2.205.369-.654.886-1.166 1.553-1.538s1.407-.556 2.223-.556h.205v-1.509h1.362zm-1.567 1.106c-.918 0-1.645.282-2.18.846-.534.564-.801 1.346-.801 2.347 0 1.006.266 1.788.798 2.348.532.559 1.265.838 2.197.838h.19v-6.38zm1.567 0v6.38h.205c.933 0 1.661-.288 2.186-.861s.788-1.354.788-2.34c0-.977-.263-1.751-.788-2.322-.525-.572-1.263-.857-2.215-.857zm6.135 4.453c0-.777.152-1.475.458-2.095s.73-1.099 1.274-1.435c.544-.337 1.166-.506 1.864-.506 1.08 0 1.952.374 2.618 1.12.667.748 1 1.742 1 2.982v.095c0 .771-.148 1.464-.443 2.076a3.365 3.365 0 0 1-1.267 1.432c-.55.342-1.18.513-1.893.513-1.075 0-1.945-.374-2.611-1.12-.667-.748-1-1.736-1-2.967zm1.362.161c0 .879.204 1.584.612 2.117s.953.798 1.637.798c.688 0 1.235-.27 1.64-.81.406-.539.608-1.294.608-2.266 0-.87-.206-1.574-.619-2.113-.412-.54-.96-.81-1.644-.81-.669 0-1.209.267-1.619.799-.41.532-.615 1.294-.615 2.285zm14.426 3.874h-1.355V41.68h-3.64v3.383H88.07v-7.924h1.362v3.435h3.64v-3.435h1.355zm2.51-1.105l.468-.58c.527-.683.828-1.708.901-3.075l.124-3.164h5.105v6.819h1.019v3.435h-1.355v-2.33h-5.53v2.33h-1.355l.007-3.435zm1.603 0h3.64V38.39h-2.438l-.081 1.89c-.083 1.577-.457 2.803-1.12 3.677zm18.51 1.105h-1.355v-6.804h-3.647v6.804h-1.362v-7.924h6.364zm9.27-3.874c0 1.206-.276 2.178-.828 2.915-.551.737-1.299 1.106-2.24 1.106-.963 0-1.72-.305-2.271-.916v3.816h-1.355V37.138h1.237l.066.879c.552-.684 1.319-1.026 2.3-1.026.952 0 1.705.36 2.26 1.077s.83 1.716.83 2.995zm-1.355-.154c0-.893-.19-1.599-.571-2.117s-.904-.776-1.568-.776c-.82 0-1.435.364-1.845 1.091v3.787c.405.723 1.025 1.084 1.86 1.084.65 0 1.166-.258 1.549-.773s.575-1.28.575-2.296zm8.369 4.029c-.078-.157-.142-.435-.19-.835-.63.654-1.383.981-2.257.981-.78 0-1.422-.221-1.922-.663-.5-.442-.75-1.002-.75-1.68 0-.826.313-1.467.94-1.923.628-.457 1.51-.685 2.648-.685h1.318v-.623c0-.473-.141-.85-.425-1.131-.283-.281-.7-.421-1.252-.421-.483 0-.889.122-1.216.366-.327.244-.49.54-.49.886h-1.363c0-.396.14-.778.421-1.146.281-.369.662-.66 1.143-.876a3.844 3.844 0 0 1 1.586-.322c.913 0 1.628.228 2.146.685.517.457.786 1.085.805 1.886v3.647c0 .728.093 1.307.279 1.736v.117zm-2.249-1.033c.425 0 .828-.11 1.209-.33.38-.22.656-.505.827-.857v-1.626h-1.062c-1.66 0-2.49.486-2.49 1.458 0 .425.142.757.425.996s.647.359 1.091.359zm6.04 1.032v-7.924h3.09c1.055 0 1.865.184 2.429.553.564.368.846.91.846 1.622 0 .366-.11.697-.33.992-.22.296-.544.522-.974.678.478.112.863.332 1.153.66.29.326.436.717.436 1.171 0 .728-.267 1.284-.802 1.67s-1.29.579-2.267.579zm1.355-3.479v2.388h2.241c.566 0 .99-.105 1.27-.315s.422-.505.422-.886c0-.791-.581-1.187-1.743-1.187zm0-1.083h1.75c1.27 0 1.905-.372 1.905-1.114s-.601-1.125-1.802-1.15h-1.853zm12.617-3.362h1.355v7.924h-1.355v-5.778l-3.655 5.779h-1.355v-7.925h1.355v5.786zm10.426 0v7.924h-1.362v-6.804h-2.695l-.161 2.967c-.088 1.362-.316 2.336-.685 2.922-.369.586-.953.891-1.754.916h-.542v-1.194l.388-.03c.44-.048.754-.302.945-.761.19-.46.312-1.309.366-2.55l.146-3.39zm4.055 2.732h2.058c.899.01 1.61.244 2.132.703.522.459.783 1.081.783 1.867 0 .791-.268 1.426-.805 1.905-.537.478-1.26.717-2.168.717h-3.355v-7.924h1.355zm0 1.106v2.98h2.014c.508 0 .901-.13 1.18-.391.278-.262.417-.62.417-1.073 0-.44-.135-.8-.406-1.08-.271-.281-.651-.427-1.14-.436zm13.54 4.087h-1.355v-3.384h-3.64v3.383h-1.363v-7.924h1.363v3.435h3.64v-3.435h1.355zm4.055-5.193h2.058c.898.01 1.609.244 2.131.703.523.459.784 1.081.784 1.867 0 .791-.269 1.426-.806 1.905-.537.478-1.26.718-2.168.718h-3.354v-7.925h1.355zm7.8 5.193h-1.362v-7.925h1.362zm-7.8-4.087v2.98h2.014c.508 0 .9-.13 1.179-.391.278-.262.417-.62.417-1.073 0-.44-.135-.8-.406-1.08-.271-.281-.65-.427-1.139-.436zm13.224-.945l1.758-2.893h1.582l-2.593 3.918 2.674 4.006h-1.568l-1.83-2.966-1.832 2.966h-1.574l2.673-4.006-2.593-3.918h1.568zm14.416-2.893h1.355v7.924h-1.355v-5.778l-3.655 5.779h-1.355v-7.925h1.355v5.786zm10.405 7.924h-1.355V41.68h-3.64v3.383h-1.362v-7.924h1.362v3.435h3.64v-3.435h1.355zm2.7 0v-7.924h3.09c1.055 0 1.865.184 2.429.553.564.368.846.91.846 1.622 0 .366-.11.697-.33.992-.22.296-.545.522-.974.678.478.112.863.332 1.153.66.29.326.436.717.436 1.171 0 .728-.267 1.284-.802 1.67-.535.386-1.29.579-2.267.579zm1.355-3.479v2.388h2.241c.566 0 .99-.105 1.27-.315s.422-.505.422-.886c0-.791-.581-1.187-1.743-1.187zm0-1.083h1.75c1.27 0 1.905-.372 1.905-1.114s-.601-1.125-1.802-1.15h-1.853zm10.778 4.709c-1.074 0-1.948-.353-2.622-1.058-.674-.706-1.01-1.65-1.01-2.831v-.25c0-.785.15-1.487.45-2.105.3-.618.72-1.101 1.26-1.45a3.167 3.167 0 0 1 1.754-.524c1.03 0 1.83.34 2.402 1.018.571.679.857 1.65.857 2.915v.564h-5.369c.02.782.248 1.413.685 1.894.437.48.993.721 1.666.721.479 0 .884-.098 1.216-.293.332-.195.623-.454.872-.776l.827.644c-.664 1.02-1.66 1.531-2.988 1.531zm-.168-7.105c-.547 0-1.006.2-1.377.597-.371.398-.6.956-.689 1.674h3.97v-.103c-.04-.688-.225-1.221-.557-1.6-.332-.378-.78-.568-1.347-.568zm8.405 5.999c.483 0 .906-.146 1.267-.44s.562-.659.6-1.098h1.283c-.025.454-.181.886-.47 1.296s-.672.738-1.153.982c-.48.244-.99.366-1.527.366-1.079 0-1.937-.36-2.574-1.08-.638-.72-.956-1.706-.956-2.956v-.227c0-.771.141-1.457.425-2.058.283-.6.69-1.067 1.22-1.399s1.155-.498 1.878-.498c.888 0 1.627.266 2.215.799s.902 1.223.941 2.072h-1.281c-.04-.512-.233-.934-.583-1.263-.349-.33-.78-.495-1.292-.495-.689 0-1.222.248-1.6.744-.379.496-.568 1.212-.568 2.15v.256c0 .913.188 1.616.564 2.11.376.492.913.739 1.611.739zm10.962-5.867h-2.66v6.826h-1.354v-6.826h-2.607v-1.098h6.62zm6.845-1.098h1.355v7.924h-1.355v-5.778l-3.655 5.779h-1.355v-7.925h1.355v5.786zm4.047 0h1.363v6.819h3.647v-6.82h1.355v6.82h.945l-.132 3.457h-1.216v-2.352h-5.962zm14.294 0h1.355v7.924h-1.355v-5.778l-3.654 5.779h-1.355v-7.925h1.355v5.786zm9.058 0h1.355v7.924h-1.355v-5.778l-3.655 5.779h-1.355v-7.925h1.355v5.786zm.366-2.886c0 .59-.202 1.066-.604 1.425s-.932.538-1.586.538-1.184-.18-1.59-.542c-.405-.361-.607-.835-.607-1.421h1.106c0 .342.092.61.278.802.185.193.456.29.813.29.342 0 .61-.096.802-.286.193-.19.29-.46.29-.806z" opacity=".8"/>
        </g>
        <g fill-rule="nonzero">
            <g fill="#161c28">
                <path d="M34.699 15.48c-2.38-4.165-4.747-8.33-7.173-12.463-.194-.324-.795-.565-1.21-.578a203.383 203.383 0 0 0-6.603-.02 3.44 3.44 0 0 0-3.02-1.8 3.444 3.444 0 0 0-3.434 3.451c0 1.904 1.539 3.45 3.434 3.45a3.434 3.434 0 0 0 3.001-1.774c1.565 0 3.092 0 4.618.02.414.006 1.009.078 1.203.35.64.897 1.132 1.898 1.804 3.068h-1.63c-3.608 0-7.217-.013-10.826.02-.46.006-1.12.058-1.34.35-.627.851-1.073 1.832-1.707 2.976h1.553c4.423 0 8.847.104 13.265-.052 1.953-.065 3.247.39 3.964 2.293.169.449.725.969 1.178 1.047.95.162 1.946.052 2.916.052.007-.221.046-.332.007-.39zM17.935 5.74c-.35.26-.783.416-1.248.416a2.09 2.09 0 0 1-2.083-2.092 2.09 2.09 0 0 1 2.083-2.093c.523 0 1.002.195 1.364.514.44.383.718.948.718 1.579a2.071 2.071 0 0 1-.834 1.676z"/>
                <path d="M23.238 45.42c-2.044-3.937-4.003-7.927-6.183-11.793-.963-1.709-1.158-3.073.188-4.587.317-.357.517-1.098.375-1.527-.298-.922-.854-1.754-1.307-2.618-.187.084-.297.104-.336.162-2.574 4.042-5.155 8.083-7.677 12.157-.2.325-.136.975.052 1.345a229.076 229.076 0 0 0 3.027 5.88 3.43 3.43 0 0 0-.647 2.014c0 1.904 1.54 3.45 3.434 3.45s3.434-1.546 3.434-3.45c0-1.832-1.429-3.34-3.233-3.443-.738-1.423-1.456-2.807-2.16-4.204-.188-.37-.395-.936-.246-1.235.491-.98 1.15-1.884 1.869-3.021.343.663.55 1.053.757 1.449 1.668 3.216 3.33 6.433 5.025 9.636.213.41.57.974.925 1.026 1.041.163 2.115.11 3.415.143a67.833 67.833 0 0 0-.712-1.384zm-8.013-.78s.006 0 0 0a2.101 2.101 0 0 1 1.028 1.807c0 1.157-.938 2.092-2.082 2.092a2.095 2.095 0 0 1-1.992-2.703 2.084 2.084 0 0 1 3.046-1.195z"/>
                <path d="M52.284 24.349a3.444 3.444 0 0 0-3.434 3.45c0 .734.227 1.417.621 1.975a293.318 293.318 0 0 1-2.011 3.295c-.22.35-.595.825-.925.85-1.093.085-2.2-.012-3.545-.038.382-.637.615-1.02.848-1.397 1.869-3.1 3.75-6.199 5.6-9.311.234-.397.531-.994.395-1.332-.4-.981-1.002-1.871-1.649-3.009-.356.585-.582.962-.802 1.332-2.29 3.801-4.676 7.55-6.836 11.423-.951 1.709-2.012 2.586-4.004 2.216-.472-.085-1.203.123-1.5.468-.628.734-1.048 1.643-1.553 2.482.169.117.24.208.31.208 4.774.117 9.554.24 14.327.298.375.007.899-.39 1.119-.74 1.1-1.735 2.16-3.496 3.208-5.263a3.445 3.445 0 0 0 3.26-3.444c.006-1.917-1.534-3.463-3.429-3.463zm1.145 5.198c-.33.22-.718.344-1.145.344a2.092 2.092 0 0 1-2.082-2.092c0-1.02.73-1.878 1.7-2.06.014-.02.027-.045.046-.071.013.02.02.039.032.058.104-.013.207-.026.31-.026a2.09 2.09 0 0 1 2.084 2.093 2.112 2.112 0 0 1-.945 1.754z"/>
            </g>
            <path d="M42.66 39.878c-4.417-.143-8.84-.39-13.258-.377-1.953.007-3.234-.494-3.887-2.417-.155-.455-.699-.994-1.145-1.079-.944-.188-1.94-.11-2.917-.143-.02.208-.058.312-.026.377 2.245 4.237 4.482 8.48 6.772 12.69.181.331.776.591 1.19.617 2.096.11 4.191.176 6.287.228a3.447 3.447 0 0 0 3.195 2.183 3.444 3.444 0 0 0 3.434-3.45c0-1.904-1.54-3.45-3.434-3.45-1.132 0-2.141.552-2.762 1.403a484.686 484.686 0 0 1-4.612-.169c-.413-.02-1.009-.11-1.19-.39-.608-.916-1.073-1.93-1.7-3.125.743.026 1.183.039 1.63.052 3.608.117 7.217.24 10.826.331.46.013 1.125-.02 1.345-.305.654-.832 1.132-1.8 1.805-2.918-.68-.026-1.12-.039-1.552-.058zm-4.456 6.64c.214-.071.44-.116.68-.116.284 0 .55.058.801.162.15.006.292.006.44.013-.032.058-.064.11-.103.169.569.377.944 1.02.944 1.754a2.09 2.09 0 0 1-2.083 2.092 2.08 2.08 0 0 1-1.63-.792 2.07 2.07 0 0 1-.452-1.3 2.073 2.073 0 0 1 1.403-1.982z" fill="#ef9a3e"/>
            <path d="M23.012 14.797c-4.767-.266-9.54-.545-14.313-.753-.375-.02-.905.357-1.145.708a223.575 223.575 0 0 0-3.648 5.594A3.444 3.444 0 0 0 .032 23.77c0 1.904 1.54 3.45 3.435 3.45a3.444 3.444 0 0 0 3.11-4.905c.9-1.384 1.773-2.729 2.652-4.06.227-.345.621-.807.951-.826 1.093-.052 2.2.078 3.538.156-.408.624-.647 1-.886 1.37-1.966 3.042-3.945 6.076-5.892 9.13-.246.39-.563.975-.44 1.319.369.994.944 1.904 1.552 3.06.369-.572.608-.942.847-1.306 2.413-3.723 4.916-7.394 7.193-11.195 1.008-1.683 2.095-2.521 4.074-2.086.466.104 1.203-.084 1.514-.422.653-.715 1.1-1.611 1.63-2.43-.162-.137-.227-.221-.298-.228zm-17.463 9.11a2.089 2.089 0 0 1-2.076 1.95 2.09 2.09 0 0 1-2.082-2.093 2.096 2.096 0 0 1 2.082-2.092 2.09 2.09 0 0 1 2.083 2.092c-.007.046-.007.098-.007.143z" fill="#ef9a3e"/>
            <path d="M47.692 12.738a220.59 220.59 0 0 0-3.15-5.666 3.466 3.466 0 0 0 .59-1.93c0-1.904-1.54-3.45-3.435-3.45s-3.434 1.546-3.434 3.45a3.454 3.454 0 0 0 3.33 3.45c.764 1.365 1.507 2.69 2.232 4.022.2.364.427.923.284 1.228-.459 1-1.086 1.924-1.772 3.08-.362-.65-.582-1.04-.802-1.423-1.772-3.158-3.531-6.322-5.33-9.473-.225-.403-.6-.955-.956-1-1.048-.13-2.122-.04-3.422-.033.337.597.55.974.763 1.358 2.174 3.872 4.25 7.797 6.552 11.585 1.016 1.676 1.255 3.034-.045 4.594-.304.37-.485 1.11-.33 1.54.33.91.912 1.728 1.39 2.579.188-.091.298-.11.33-.175 2.445-4.126 4.896-8.246 7.29-12.398.2-.318.116-.968-.085-1.338zM43.715 5.68a2.086 2.086 0 0 1-3.027 1.3 2.098 2.098 0 0 1-1.074-1.832V5.07a2.096 2.096 0 0 1 2.083-2.015 2.09 2.09 0 0 1 2.082 2.093c.007.182-.019.357-.064.532z" fill="#ef9a3e"/>
            <path d="M30.784 32.844v-7.348l3.19.007-6.108-6.596-6.088 6.568 3.19.008v7.361z" fill="#161c28"/>
        </g>
    </g>
</svg>
