<svg height="112" viewBox="0 0 112 112" width="112" xmlns="http://www.w3.org/2000/svg"><g fill="none" fill-rule="evenodd"><path d="m61 2.88675135 38.4974226 22.22649735c3.0940104 1.7863279 5.0000004 5.0875981 5.0000004 8.660254v44.4529946c0 3.5726559-1.90599 6.8739261-5.0000004 8.660254l-38.4974226 22.2264977c-3.0940108 1.786328-6.9059892 1.786328-10 0l-38.4974226-22.2264977c-3.09401078-1.7863279-5.00000001-5.0875981-5.00000001-8.660254v-44.4529946c0-3.5726559 1.90598923-6.8739261 5.00000001-8.660254l38.4974226-22.22649735c3.0940108-1.78632795 6.9059892-1.78632795 10 0z" fill="#fef7e5"/><g fill="#ffa12c" fill-rule="nonzero" transform="translate(32 29)"><path d="m27.2311875 21.3878437c-.5145-.249-1.0664062-.4356562-1.6555312-.5601562-.5893125-.1245-1.1411251-.249-1.655625-.3735-.5145938-.1245-.9419063-.2863125-1.282125-.4855313-.3403125-.1992187-.5104688-.5145937-.5104688-.946125 0-.4315312.17025-.7219687.5104688-.8714062.3403125-.1493437.7510312-.2241562 1.2323437-.2241562 1.6396875 0 2.9924063.5145937 4.0581563 1.5435937v-2.863125c-.3980625-.439875-1.3690313-.7635-2.9129063-.9710625v-2.863125c0-.0497813-.0331875-.074625-.0996562-.074625h-2.1660938c-.0664687 0-.0995625.0330938-.0995625.0995625v2.8134375c-.5145.190875-1.0332187.4709062-1.5560625.8402813-.52275.3692812-.89625.7738124-1.1204062 1.2136874-.2240625.4398751-.3360938.9876563-.3360938 1.6432501 0 .6555937.1701563 1.2158437.5104688 1.6805624.6027187.8232188 1.5860625 1.3875938 2.9503125 1.6930313l1.6680937.3735c.5110313.114375.9375937.2592187 1.2795938.4343438.3419062.175125.5129999.4369687.5129999.7855312 0 .6214687-.3953437 1.053-1.186125 1.2946875-.3258749.0995625-.8267812.1493438-1.5028124.1493438-.9461251 0-1.8008438-.2241563-2.5643438-.6722813-.7634063-.448125-1.3444688-1.0705312-1.7428125-1.8673125v3.361125c1.0290938.6257813 2.0912812 1.0988438 3.1868437 1.4191875l.0249375 2.5395c.0004688.0497813.0254063.074625.0747188.074625h2.1660938c.0664687 0 .0995624-.0330938.0995624-.0995625v-2.340375c1.4109376-.4696875 2.4451876-1.1203125 3.1028438-1.951875.537375-.6794063.8060625-1.3483125.8060625-2.0067188-.0002813-1.2805312-.59775-2.2100625-1.792875-2.7883125z"/><path d="m37.6063125 25.8578438-3.6796875 4.8051562v-6.1118437h7.7033438l-17.4707813-24.53868755-18.447375 24.53868755h8.6494688v5.976375l-3.3867188-4.6696875-10.9745625 14.331h5.1703125v7.7985937h38.2101563v-7.7985937h4.6194375zm-22.2417187 20.7455625h-8.8103438v-7.7985938h-3.751125l8.14125-10.63125 7.7102813 10.63125h-3.2901563v7.7985938zm16.4374687.0000937h-15.0533438v-6.4145625h4.6195313l-5.6228438-7.7530312v-9.2687813h-7.2615937l15.645-20.81109375 14.8168125 20.81109375h-6.4030313v9.3030938l-5.91075 7.718625h5.1702188zm10.194375-7.7986875v7.7985938h-8.8104375v-7.7985938h-3.751125l8.14125-10.63125 7.7102812 10.63125z"/><path d="m39.7006875 41.51625v2.7914063h-1.541625v1.3840312h2.9256563v-4.1754375z"/><path d="m12.9523125 41.51625v2.7914063h-1.5415313v1.3840312h2.9255625v-4.1754375z"/><path d="m8.605781 44.307563h1.330219v1.384031h-1.330219z"/></g></g></svg>