<?xml version="1.0" encoding="UTF-8"?>
<svg width="98px" height="110px" viewBox="0 0 98 110" version="1.1" xmlns="http://www.w3.org/2000/svg" xmlns:xlink="http://www.w3.org/1999/xlink">
    <!-- Generator: Sketch 49.3 (51167) - http://www.bohemiancoding.com/sketch -->
    <title>Icons / feature-icon_02</title>
    <desc>Created with Sketch.</desc>
    <defs></defs>
    <g id="WebimaticInvest" stroke="none" stroke-width="1" fill="none" fill-rule="evenodd">
        <g id="WebimaticInvest-desktop__Page01" transform="translate(-671.000000, -1957.000000)">
            <g id="Group-17" transform="translate(0.000000, 1688.000000)">
                <g id="feature-item--02" transform="translate(535.000000, 268.000000)">
                    <g id="Icons-/-feature-icon_02" transform="translate(129.000000, 0.000000)">
                        <path d="M61,2.88675135 L99.4974226,25.1132487 C102.591433,26.8995766 104.497423,30.2008468 104.497423,33.7735027 L104.497423,78.2264973 C104.497423,81.7991532 102.591433,85.1004234 99.4974226,86.8867513 L61,109.113249 C57.9059892,110.899577 54.0940108,110.899577 51,109.113249 L12.5025774,86.8867513 C9.40856662,85.1004234 7.50257739,81.7991532 7.50257739,78.2264973 L7.50257739,33.7735027 C7.50257739,30.2008468 9.40856662,26.8995766 12.5025774,25.1132487 L51,2.88675135 C54.0940108,1.1004234 57.9059892,1.1004234 61,2.88675135 Z" id="icon-bg" fill="#FEF7E5"></path>
                        <g id="marketing-seo-target-2" stroke-width="1" transform="translate(39.000000, 36.000000)" fill="#EF9A3E">
                            <path d="M27.14,11.6816667 C24.7883333,9.605 21.71,8.33333333 18.3333333,8.33333333 C10.9816667,8.33333333 5,14.315 5,21.6666667 C5,29.0183333 10.9816667,35 18.3333333,35 C25.685,35 31.6666667,29.0183333 31.6666667,21.6666667 C31.6666667,18.29 30.395,15.2116667 28.3183333,12.86 L31.635,9.54333333 L34.5066667,9.99 C34.5483333,9.99666667 34.5916667,10 34.635,10 C34.8533333,10 35.0666667,9.91333333 35.225,9.755 L39.7566667,5.22166667 C39.9783333,5 40.0566667,4.67166667 39.96,4.37333333 C39.8633333,4.075 39.6066667,3.85666667 39.2966667,3.80833333 L36.61,3.39166667 L36.1933333,0.705 C36.145,0.395 35.9266667,0.138333333 35.6283333,0.0416666667 C35.3266667,-0.0566666667 35,0.0233333333 34.7766667,0.245 L30.245,4.77833333 C30.0566667,4.96666667 29.97,5.23333333 30.01,5.495 L30.4566667,8.365 L27.14,11.6816667 Z M30,21.6666667 C30,28.1 24.7666667,33.3333333 18.3333333,33.3333333 C11.9,33.3333333 6.66666667,28.1 6.66666667,21.6666667 C6.66666667,15.2333333 11.9,10 18.3333333,10 C21.25,10 23.9133333,11.0833333 25.9616667,12.86 L23.5766667,15.245 C22.14,14.0683333 20.33,13.3333333 18.3333333,13.3333333 C13.7383333,13.3333333 10,17.0716667 10,21.6666667 C10,26.2616667 13.7383333,30 18.3333333,30 C22.9283333,30 26.6666667,26.2616667 26.6666667,21.6666667 C26.6666667,19.67 25.9316667,17.86 24.7566667,16.4233333 L27.1416667,14.0383333 C28.9166667,16.085 30,18.75 30,21.6666667 Z M20,21.6666667 C20,22.585 19.2516667,23.3333333 18.3333333,23.3333333 C17.415,23.3333333 16.6666667,22.585 16.6666667,21.6666667 C16.6666667,20.7483333 17.415,20 18.3333333,20 C18.4766667,20 18.6066667,20.0483333 18.74,20.0816667 L17.745,21.0766667 C17.42,21.4016667 17.42,21.93 17.745,22.255 C17.9066667,22.4183333 18.12,22.5 18.3333333,22.5 C18.5466667,22.5 18.76,22.4183333 18.9233333,22.2566667 L19.9183333,21.2616667 C19.9516667,21.3933333 20,21.5233333 20,21.6666667 Z M20.0166667,18.805 C19.52,18.5133333 18.95,18.3333333 18.3333333,18.3333333 C16.495,18.3333333 15,19.8283333 15,21.6666667 C15,23.505 16.495,25 18.3333333,25 C20.1716667,25 21.6666667,23.505 21.6666667,21.6666667 C21.6666667,21.05 21.4866667,20.48 21.195,19.9833333 L23.5783333,17.6 C24.455,18.73 25,20.13 25,21.6666667 C25,25.3433333 22.01,28.3333333 18.3333333,28.3333333 C14.6566667,28.3333333 11.6666667,25.3433333 11.6666667,21.6666667 C11.6666667,17.99 14.6566667,15 18.3333333,15 C19.87,15 21.27,15.545 22.4,16.4216667 L20.0166667,18.805 Z M34.795,2.58333333 L35.0533333,4.25 C35.11,4.60833333 35.39,4.89 35.7483333,4.94666667 L37.415,5.205 L34.3433333,8.27833333 L32.0733333,7.925 L31.7216667,5.65666667 L34.795,2.58333333 Z" id="Shape" fill-rule="nonzero"></path>
                            <path d="M18.3333333,40 C28.4416667,40 36.6666667,31.775 36.6666667,21.6666667 C36.6666667,18.1966667 35.6733333,14.8033333 33.7933333,11.8516667 C33.545,11.4633333 33.0283333,11.3483333 32.6416667,11.5966667 C32.2533333,11.8433333 32.14,12.3583333 32.3866667,12.7466667 C34.0966667,15.43 35,18.515 35,21.6666667 C35,30.8566667 27.5233333,38.3333333 18.3333333,38.3333333 C9.14333333,38.3333333 1.66666667,30.8566667 1.66666667,21.6666667 C1.66666667,12.4766667 9.14333333,5 18.3333333,5 C21.485,5 24.57,5.90333333 27.2533333,7.61333333 C27.6416667,7.85833333 28.1566667,7.74666667 28.4033333,7.35833333 C28.65,6.97 28.5366667,6.455 28.1483333,6.20833333 C25.1966667,4.32666667 21.8033333,3.33333333 18.3333333,3.33333333 C8.225,3.33333333 0,11.5583333 0,21.6666667 C0,31.775 8.225,40 18.3333333,40 Z" id="Shape" fill-rule="nonzero"></path>
                        </g>
                    </g>
                </g>
            </g>
        </g>
    </g>
</svg>