<?xml version="1.0" encoding="UTF-8"?>
<svg width="98px" height="110px" viewBox="0 0 98 110" version="1.1" xmlns="http://www.w3.org/2000/svg" xmlns:xlink="http://www.w3.org/1999/xlink">
    <!-- Generator: Sketch 49.3 (51167) - http://www.bohemiancoding.com/sketch -->
    <title>Icons / feature-icon_03</title>
    <desc>Created with Sketch.</desc>
    <defs></defs>
    <g id="WebimaticInvest" stroke="none" stroke-width="1" fill="none" fill-rule="evenodd">
        <g id="WebimaticInvest-desktop__Page01" transform="translate(-1071.000000, -1957.000000)">
            <g id="Group-17" transform="translate(0.000000, 1688.000000)">
                <g id="feature-item--03" transform="translate(935.000000, 268.000000)">
                    <g id="Icons-/-feature-icon_03" transform="translate(129.000000, 0.000000)">
                        <path d="M61,2.88675135 L99.4974226,25.1132487 C102.591433,26.8995766 104.497423,30.2008468 104.497423,33.7735027 L104.497423,78.2264973 C104.497423,81.7991532 102.591433,85.1004234 99.4974226,86.8867513 L61,109.113249 C57.9059892,110.899577 54.0940108,110.899577 51,109.113249 L12.5025774,86.8867513 C9.40856662,85.1004234 7.50257739,81.7991532 7.50257739,78.2264973 L7.50257739,33.7735027 C7.50257739,30.2008468 9.40856662,26.8995766 12.5025774,25.1132487 L51,2.88675135 C54.0940108,1.1004234 57.9059892,1.1004234 61,2.88675135 Z" id="icon-bg" fill="#FEF7E5"></path>
                        <g id="marketing-campaign-stats" stroke-width="1" transform="translate(36.000000, 40.000000)" fill="#EF9A3E">
                            <path d="M0.833333333,33 L32.5,33 C32.96,33 33.3333333,32.6304 33.3333333,32.175 C33.3333333,31.7196 32.96,31.35 32.5,31.35 L1.73666667,31.35 L1.73666667,0.825 C1.73666667,0.3696 1.36333333,0 0.903333333,0 C0.443333333,0 0.07,0.3696 0.07,0.825 L0.07,31.84335 C0.025,31.94565 0,32.05785 0,32.175 C0,32.6304 0.373333333,33 0.833333333,33 Z" id="Shape" fill-rule="nonzero"></path>
                            <path d="M35.8333333,0 C33.535,0 31.6666667,1.8513 31.6666667,4.125 C31.6666667,5.2899 32.16,6.33765 32.9466667,7.0884 L25.6416667,18.42885 C25.1816667,18.2556 24.6883333,18.15 24.1666667,18.15 C23.3183333,18.15 22.5316667,18.40575 21.8716667,18.8364 L17.6383333,14.6454 C18.075,13.99365 18.3333333,13.21485 18.3333333,12.375 C18.3333333,10.1013 16.465,8.25 14.1666667,8.25 C11.8683333,8.25 10,10.1013 10,12.375 C10,13.69005 10.6366667,14.85165 11.6083333,15.60735 L8.565,21.60345 C8.22333333,21.5127 7.87,21.45 7.5,21.45 C5.20166667,21.45 3.33333333,23.3013 3.33333333,25.575 C3.33333333,27.8487 5.20166667,29.7 7.5,29.7 C9.79833333,29.7 11.6666667,27.8487 11.6666667,25.575 C11.6666667,24.25995 11.03,23.09835 10.0583333,22.34265 L13.1016667,16.34655 C13.4433333,16.4373 13.7966667,16.5 14.1666667,16.5 C15.015,16.5 15.8016667,16.24425 16.46,15.8136 L20.6933333,20.0046 C20.2566667,20.65635 20,21.43515 20,22.275 C20,24.5487 21.8683333,26.4 24.1666667,26.4 C26.465,26.4 28.3333333,24.5487 28.3333333,22.275 C28.3333333,21.1101 27.8383333,20.06235 27.0533333,19.3116 L34.3583333,7.97115 C34.8183333,8.1444 35.3116667,8.25 35.8333333,8.25 C38.1316667,8.25 40,6.3987 40,4.125 C40,1.8513 38.1316667,0 35.8333333,0 Z M7.5,28.05 C6.12166667,28.05 5,26.93955 5,25.575 C5,24.21045 6.12166667,23.1 7.5,23.1 C8.87833333,23.1 10,24.21045 10,25.575 C10,26.93955 8.87833333,28.05 7.5,28.05 Z M11.6666667,12.375 C11.6666667,11.01045 12.7883333,9.9 14.1666667,9.9 C15.545,9.9 16.6666667,11.01045 16.6666667,12.375 C16.6666667,13.0482 16.3916667,13.65705 15.9516667,14.10255 C15.945,14.10915 15.935,14.1108 15.9283333,14.1174 C15.9216667,14.124 15.92,14.1339 15.9133333,14.1405 C15.4616667,14.57775 14.845,14.85 14.1666667,14.85 C12.7883333,14.85 11.6666667,13.73955 11.6666667,12.375 Z M24.1666667,24.75 C22.7883333,24.75 21.6666667,23.63955 21.6666667,22.275 C21.6666667,21.6018 21.94,20.99295 22.3816667,20.54745 C22.3883333,20.54085 22.3983333,20.5392 22.405,20.5326 C22.4116667,20.526 22.4133333,20.5161 22.4216667,20.5095 C22.8716667,20.07225 23.4866667,19.8 24.1666667,19.8 C25.545,19.8 26.6666667,20.91045 26.6666667,22.275 C26.6666667,23.63955 25.545,24.75 24.1666667,24.75 Z M35.8333333,6.6 C34.455,6.6 33.3333333,5.48955 33.3333333,4.125 C33.3333333,2.76045 34.455,1.65 35.8333333,1.65 C37.2116667,1.65 38.3333333,2.76045 38.3333333,4.125 C38.3333333,5.48955 37.2116667,6.6 35.8333333,6.6 Z" id="Shape" fill-rule="nonzero"></path>
                        </g>
                    </g>
                </g>
            </g>
        </g>
    </g>
</svg>