<svg id="Слой_1" xmlns="http://www.w3.org/2000/svg" viewBox="0 0 22 22">
    <style>
        .st0{opacity:.16}
    </style>
    <path class="st0" d="M10 21C3.9 21-1 16.1-1 10S3.9-1 10-1s11 4.9 11 11-4.9 11-11 11zm0-20c-5 0-9 4-9 9s4 9 9 9 9-4 9-9-4-9-9-9z" transform="translate(1 1)"/>
    <path class="st0" d="M7 14c-.3 0-.5-.1-.7-.3-.4-.4-.4-1 0-1.4l6-6c.4-.4 1-.4 1.4 0s.4 1 0 1.4l-6 6c-.2.2-.4.3-.7.3z" transform="translate(1 1)"/>
    <path class="st0" d="M13 14c-.3 0-.5-.1-.7-.3l-6-6c-.4-.4-.4-1 0-1.4s1-.4 1.4 0l6 6c.4.4.4 1 0 1.4-.2.2-.4.3-.7.3z" transform="translate(1 1)"/>
</svg>
