<svg height="24" viewBox="0 0 24 24" width="24" xmlns="http://www.w3.org/2000/svg">
    <path d="M16.479 13.157c.714-1.056 1.146-2.384 1.146-3.829C17.625 5.833 15.107 3 12 3S6.375 5.833 6.375 9.328c0 1.444.431 2.773 1.146 3.829C5.563 13.418 4 15.292 4 17.625v1.002C4 19.935 4.946 21 6.11 21h11.78c1.164 0 2.11-1.065 2.11-2.373v-1.002c0-2.333-1.564-4.207-3.521-4.468zM12 4.687c2.278 0 4.125 2.078 4.125 4.641s-1.847 4.64-4.125 4.64-4.125-2.077-4.125-4.64S9.722 4.688 12 4.688zm6.5 13.94c0 .379-.273.686-.61.686H6.11c-.337 0-.61-.307-.61-.686v-1.002c0-1.553 1.12-2.813 2.5-2.813h1.192c1.734 1.124 3.876 1.129 5.616 0H16c1.38 0 2.5 1.26 2.5 2.813z" fill="#ccc"/>
</svg>
