<svg height="125" viewBox="0 0 112 125" width="112" xmlns="http://www.w3.org/2000/svg">
    <g fill="none" fill-rule="evenodd">
        <path d="M62.21 1.948l42.818 24.682a12.933 12.933 0 0 1 6.474 11.205v49.33c0 4.624-2.468 8.896-6.474 11.205L62.21 123.052a12.933 12.933 0 0 1-12.918 0L6.474 98.37A12.933 12.933 0 0 1 0 87.165v-49.33c0-4.624 2.468-8.896 6.474-11.205L49.292 1.948a12.933 12.933 0 0 1 12.918 0z" fill="#fef7e5"/>
        <g stroke="#ef9a3e" stroke-linecap="round" stroke-linejoin="round" stroke-width="3.584">
            <path d="M41.664 47.991h28.672c1.971 0 3.584 1.638 3.584 3.64v21.84c0 2.002-1.613 3.64-3.584 3.64H41.664c-1.971 0-3.584-1.638-3.584-3.64v-21.84c0-2.002 1.613-3.64 3.584-3.64z"/>
            <path d="M73.92 51.631L56 64.371l-17.92-12.74"/>
        </g>
    </g>
</svg>
