<?xml version="1.0" encoding="UTF-8"?><!DOCTYPE svg PUBLIC "-//W3C//DTD SVG 1.1//EN" "http://www.w3.org/Graphics/SVG/1.1/DTD/svg11.dtd"><svg xmlns="http://www.w3.org/2000/svg"><symbol id="icon-3" viewBox="0 0 68 107">
    <title>
        3
    </title>
    <path d="M0 92.82l11.199-19.795c5.865 6.256 12.398 9.384 19.597 9.384 4.177 0 7.488-1.002 9.932-3.006 2.444-2.004 3.666-4.472 3.666-7.405 0-7.723-5.91-11.584-17.73-11.584h-6.667L15.065 47.95l12.531-16.57c1.334-1.76 2.689-3.47 4.067-5.132 1.377-1.662 2.421-2.835 3.132-3.52l1.067-1.173c-2.044.196-5.066.44-9.066.44H4V0h60.126v15.983l-19.33 24.488c7.02 1.662 12.62 5.28 16.797 10.851 4.177 5.573 6.266 12.073 6.266 19.503 0 9.776-3.089 18.183-9.266 25.221-6.177 7.039-14.864 10.558-26.063 10.558-13.42 0-24.263-4.594-32.529-13.784z" fill-rule="evenodd"/>
</symbol><symbol id="icon-clock" viewBox="0 0 20 20">
    <style>
        .st0{fill:#fff}
    </style>
    <title>
        clock
    </title>
    <g id="WebimaticInvest">
        <g id="WebimaticInvest-desktop__Page02" transform="translate(-164 -535)">
            <g id="Group-3" transform="translate(135 288)">
                <g id="Group-2" transform="translate(30 248)">
                    <g id="Group">
                        <g id="clock">
                            <path class="st0" d="M9 18.9C3.5 18.9-.9 14.5-.9 9S3.5-.9 9-.9s9.9 4.4 9.9 9.9-4.4 9.9-9.9 9.9zm0-18C4.5.9.9 4.5.9 9s3.6 8.1 8.1 8.1 8.1-3.6 8.1-8.1S13.5.9 9 .9z"/>
                            <path class="st0" d="M11.7 12.6c-.2 0-.5-.1-.6-.3L8.4 9.6c-.2-.1-.3-.4-.3-.6V3.6c0-.5.4-.9.9-.9s.9.4.9.9v5l2.4 2.4c.4.4.4.9 0 1.3-.1.2-.4.3-.6.3z"/>
                        </g>
                    </g>
                </g>
            </g>
        </g>
    </g>
</symbol><symbol id="icon-facebook" viewBox="0 0 10 20">
    <path d="M10 .144v3.173H8.183c-.664 0-1.111.145-1.343.433s-.347.721-.347 1.298V7.32h3.391l-.451 3.557h-2.94V20H2.951v-9.123H0V7.32h2.951V4.7c0-1.49.402-2.647 1.204-3.468C4.958.411 6.026 0 7.361 0 8.495 0 9.375.048 10 .144z"/>
</symbol><symbol id="icon-file" viewBox="0 0 24 24">
    <path d="M21 17.76c0 .92-.32 1.689-.96 2.31-.639.62-1.432.93-2.38.93-1.092 0-2.043-.393-2.853-1.178l-9.435-9.141C4.457 9.777 4 8.713 4 7.488c0-1.248.445-2.309 1.336-3.18S7.315 3 8.602 3c1.28 0 2.384.444 3.315 1.331l7.347 7.139a.356.356 0 0 1 .121.26c0 .125-.123.307-.37.547-.247.24-.435.36-.565.36a.39.39 0 0 1-.28-.119l-7.358-7.15c-.64-.605-1.372-.907-2.198-.907-.858 0-1.582.294-2.173.883a2.9 2.9 0 0 0-.887 2.132c0 .825.308 1.536.923 2.133l9.423 9.153c.51.495 1.097.742 1.76.742.519 0 .948-.165 1.288-.495s.51-.746.51-1.249c0-.644-.255-1.213-.765-1.708l-7.055-6.844a1.06 1.06 0 0 0-.729-.283.803.803 0 0 0-.583.224.755.755 0 0 0-.23.566c0 .251.1.483.303.695l4.979 4.83a.356.356 0 0 1 .121.259c0 .125-.125.31-.376.553-.251.244-.441.366-.57.366a.377.377 0 0 1-.268-.118l-4.979-4.83a2.316 2.316 0 0 1-.765-1.755c0-.644.231-1.19.693-1.638s1.024-.671 1.687-.671c.713 0 1.316.247 1.81.742l7.055 6.844c.81.77 1.214 1.693 1.214 2.768z"/>
</symbol><symbol id="icon-form-textarea" viewBox="0 0 24 24">
    <g stroke-width="1.905" fill-rule="evenodd" stroke-linecap="round" stroke-linejoin="round">
        <path d="M14 2l4 3.81L7 16.286H3v-3.81z"/>
        <path d="M3 21.048h18"/>
    </g>
</symbol><symbol id="icon-form-user" viewBox="0 0 24 24">
    <path d="M16.479 13.157c.714-1.056 1.146-2.384 1.146-3.829C17.625 5.833 15.107 3 12 3S6.375 5.833 6.375 9.328c0 1.444.431 2.773 1.146 3.829C5.563 13.418 4 15.292 4 17.625v1.002C4 19.935 4.946 21 6.11 21h11.78c1.164 0 2.11-1.065 2.11-2.373v-1.002c0-2.333-1.564-4.207-3.521-4.468zM12 4.687c2.278 0 4.125 2.078 4.125 4.641s-1.847 4.64-4.125 4.64-4.125-2.077-4.125-4.64S9.722 4.688 12 4.688zm6.5 13.94c0 .379-.273.686-.61.686H6.11c-.337 0-.61-.307-.61-.686v-1.002c0-1.553 1.12-2.813 2.5-2.813h1.192c1.734 1.124 3.876 1.129 5.616 0H16c1.38 0 2.5 1.26 2.5 2.813z"/>
</symbol><symbol id="icon-lang" viewBox="0 0 10 7">
    <title>
        ic-keyboard-arrow-down-24px
    </title>
    <path d="M1.175.004L5 4.202 8.825.004 10 1.296l-5 5.5-5-5.5z" fill-rule="nonzero" opacity=".6"/>
</symbol><symbol id="icon-link" viewBox="0 0 32 33">
    <style>
        .st0{fill:#ef9a3e}.st1{fill:#fff}
    </style>
    <path class="st0" d="M16 .7c8.8 0 16 7.2 16 16s-7.2 16-16 16-16-7.2-16-16C0 7.8 7.2.7 16 .7z"/>
    <path class="st1" d="M7.4 9h-.3C6 8.9 5 8.3 4.4 7.4c-.3-.3-.2-.7.1-.9.3-.2.7-.1.9.1.4.6 1.1 1 1.9 1 .7.1 1.5-.2 2-.8L11.1 5c1-1 .9-2.6 0-3.6-1-1-2.6-1-3.6 0l-1.1 1c-.2.2-.6.2-.9 0-.2-.2-.2-.6 0-.9L6.6.4C8.1-1 10.5-1 12 .5c1.5 1.5 1.5 3.9 0 5.4l-1.9 1.9C9.4 8.5 8.4 9 7.4 9z" transform="translate(10 10.656)"/>
    <path class="st1" d="M3.2 13.1c-1 0-2-.4-2.7-1.1C-1 10.5-1 8.1.4 6.6l1.9-1.9c.8-.8 1.9-1.2 3-1.1 1.1.1 2.1.6 2.8 1.5.2.3.2.6-.1.9-.3.2-.7.1-.9-.2-.4-.6-1.1-1-1.9-1-.7-.1-1.4.2-1.9.7l-2 2c-1 1-.9 2.6 0 3.6 1 1 2.6 1 3.6 0L6.1 10c.2-.2.6-.2.9 0 .2.2.2.6 0 .9L5.9 12c-.8.7-1.7 1.1-2.7 1.1z" transform="translate(10 10.656)"/>
</symbol><symbol id="icon-mail" viewBox="0 0 17 13">
    <path d="M15.3 0H1.7C.765 0 .008.731.008 1.625L0 11.375C0 12.269.765 13 1.7 13h13.6c.935 0 1.7-.731 1.7-1.625v-9.75C17 .731 16.235 0 15.3 0zm0 3.25L8.5 7.312 1.7 3.25V1.625l6.8 4.063 6.8-4.063z"/>
</symbol><symbol id="icon-next" viewBox="0 0 7 12">
    <style>
        .st0{fill:#161c28}
    </style>
    <path class="st0" d="M1 12c-.3 0-.5-.1-.7-.3-.4-.4-.4-1 0-1.4L4.6 6 .3 1.7C-.1 1.3-.1.7.3.3s1-.4 1.4 0l5 5c.4.4.4 1 0 1.4l-5 5c-.2.2-.4.3-.7.3z"/>
</symbol><symbol id="icon-prev" viewBox="0 0 7 12">
    <style>
        .st0{fill:#161c28}
    </style>
    <path class="st0" d="M6 12c-.3 0-.5-.1-.7-.3l-5-5c-.4-.4-.4-1 0-1.4l5-5c.4-.4 1-.4 1.4 0s.4 1 0 1.4L2.4 6l4.3 4.3c.4.4.4 1 0 1.4-.2.2-.4.3-.7.3z"/>
</symbol><symbol id="icon-telegram" viewBox="0 0 21 17">
    <path d="M20.69 1.56l-3.093 14.376c-.233 1.014-.842 1.267-1.707.789l-4.713-3.423-2.274 2.156c-.252.248-.462.455-.947.455l.338-4.73 8.736-7.778c.38-.334-.083-.52-.59-.185l-10.8 6.7L.991 8.486c-1.011-.31-1.03-.996.21-1.474L19.387.108c.842-.31 1.58.185 1.305 1.452z"/>
</symbol></svg>