<svg height="45" viewBox="0 0 107 45" width="107" xmlns="http://www.w3.org/2000/svg"><g fill="none" fill-rule="evenodd" transform="translate(0 -2)"><path d="m60.176 32.16-4.176-17.16h4.416l2.16 10.728c.0640003.3200016.1159998.6279985.156.924s.06.5159993.06.66v.216h.048c.0160001-.4960025.1119991-1.0959965.288-1.8l2.64-10.728h3.384l2.568 10.728c.0800004.3200016.1439998.6279985.192.924s.0799999.5159993.096.66v.216h.048c0-.4960025.0719993-1.0959965.216-1.8l2.352-10.728h4.344l-4.344 17.16h-4.68l-2.16-8.664-.336-2.016h-.048c-.0480002.608003-.1599991 1.2799963-.336 2.016l-2.16 8.664zm20.136 0 1.416-17.16h4.56l2.496 7.248.864 2.832h.048c.3200016-1.1520058.6079987-2.0959963.864-2.832l2.496-7.248h4.56l1.392 17.16h-4.2l-.528-7.728c-.0320002-.3840019-.048-.8159976-.048-1.296s.0079999-.8639986.024-1.152l.024-.432h-.048c-.3840019 1.200006-.7039987 2.1599964-.96 2.88l-1.8 4.968h-3.6l-1.8-4.968-.96-2.88h-.048c.0640003 1.0560053.0640003 2.0159957 0 2.88l-.528 7.728zm21.648 0v-17.16h4.2v17.16z" fill="#161c28"/><g fill-rule="nonzero"><g transform="translate(0 2.25)"><g fill="#161c28"><path d="m29.87471 12.7994943c-2.049188-3.5858723-4.087239-7.17174462-6.1754061-10.72964601-.1670533-.27970923-.6849187-.48669405-1.0412993-.49788242-1.8932714-.0391593-3.7921113-.0391593-5.6853828-.01678256-.5011601-.92304045-1.4812065-1.54958913-2.600464-1.54958913-1.6315546 0-2.9568446 1.33141593-2.9568446 2.97051201 0 1.63909609 1.32529 2.97051201 2.9568446 2.97051201 1.1081206 0 2.0770301-.6153603 2.5837587-1.52721238 1.3475638 0 2.6617169 0 3.97587.01678255.3563806.00559418.8686775.06713021 1.0357309.30208597.5512761.77199747.974478 1.63350189 1.5535963 2.64045512h-1.4032483c-3.1071925 0-6.2143851-.01118837-9.3215777.01678255-.3953596.00559418-.9633411.05034766-1.1526682.30208597-.5401392.73283818-.924362 1.57756005-1.4700696 2.56213652h1.3364269c3.8088167 0 7.6176334.089507 11.4208817-.0447535 1.6816705-.0559418 2.7953596.3356511 3.413457 1.9747472.1447796.3859987.6236659.8335335 1.0134571.9006637.8185615.1398546 1.6761021.0447535 2.5113689.0447535.0055685-.1902023.0389791-.2853034.0055685-.3356511zm-14.4334107-8.38568267c-.3006961.22376738-.6737819.35802781-1.07471.35802781-.9911833 0-1.7930394-.81115676-1.7930394-1.80132743 0-.99576485.8074246-1.80132743 1.7930394-1.80132743.4510441 0 .8631091.16782553 1.174942.44194058.3786543.33005689.6180975.81675095.6180975 1.35938685.0055684.58738938-.2784223 1.11324273-.7183295 1.44329962z"/><path d="m20.0074246 38.5774968c-1.7596288-3.3900758-3.4468678-6.8249051-5.3234339-10.153445-.8296984-1.4712705-.9967517-2.6460493.1614849-3.9494943.2728539-.3076801.4454757-.9454172.3229699-1.3146334-.2561485-.7943742-.7350348-1.5104298-1.124826-2.2544563-.1614849.0727244-.2561485.0895069-.2895592.1398546-2.2162413 3.4795828-4.43805102 6.9591656-6.60974475 10.4667193-.17262181.2797092-.11693736.8391277.04454756 1.1579962.84083527 1.7006321 1.71508121 3.3844817 2.60603248 5.0627371-.35081206.486694-.55684455 1.0852718-.55684455 1.7341972 0 1.6390961 1.32529006 2.970512 2.95684456 2.970512s2.9568445-1.3314159 2.9568445-2.970512c0-1.5775601-1.2306264-2.8754109-2.7842227-2.9649178-.6348028-1.2251265-1.2529002-2.4166878-1.8598608-3.6194375-.1614849-.3188685-.3396752-.8055625-.2116009-1.062895.4232018-.8447219.9911833-1.6223136 1.6092807-2.6012959.2951276.5706069.4733179.9062579.6515081 1.2475032 1.436659 2.7691214 2.8677495 5.5382427 4.3266822 8.2961757.1837587.3524337.4900232.8391277.7962877.8838812.8965197.1398546 1.8208817.0951011 2.9401392.1230721-.2617169-.5202592-.4343388-.8559103-.612529-1.1915614zm-6.899304-.6713021s.0055685 0 0 0c.5290024.3132743.8853829.8950695.8853829 1.5551833 0 .9957649-.8074246 1.8013274-1.7930395 1.8013274-.9856148 0-1.7930394-.8111567-1.7930394-1.8013274 0-.1846081.0278422-.3580278.0779582-.5258533.2227378-.7384324.9076566-1.2754741 1.7150812-1.2754741.3341068 0 .6459397.0895069.9076566.2461441z"/><path d="m45.0153132 20.4355563c-1.6315545 0-2.9568445 1.3314159-2.9568445 2.970512 0 .6321428.1948956 1.2195322.5345707 1.7006321-.5791183.9621997-1.1526682 1.9020227-1.7317865 2.8362516-.1893271.3020859-.512297.7104614-.7962877.7328381-.9410673.0727244-1.8932715-.0111883-3.0515081-.0335651.3285383-.5482301.5290023-.8782869.7294663-1.2027497 1.6092808-2.668426 3.2296984-5.336852 4.8222738-8.0164665.2004641-.3412452.4566125-.8559102.3396752-1.1468078-.3452436-.8447219-.8631091-1.6111251-1.4199536-2.5901074-.3062645.5034766-.5011601.8279393-.6904872 1.1468078-1.9712297 3.272598-4.0259861 6.5004425-5.8858469 9.8345765-.8185615 1.4712705-1.7317866 2.2264854-3.4468678 1.9076169-.4064965-.0727244-1.0357308.1062895-1.2918793.4027813-.5401392.6321429-.9020882 1.4153287-1.3364269 2.1369785.1447796.1006953.2060325.1790139.2672854.1790139 4.1095127.1006953 8.2245939.2069849 12.3341067.2573325.3229698.0055942.7740139-.3356511.9633411-.637737.9466357-1.4936473 1.8598607-3.0096713 2.7619489-4.5312895 1.5591647-.0783186 2.8064965-1.3761694 2.8064965-2.9649179.0055685-1.6502844-1.3197216-2.9817003-2.9512761-2.9817003zm.9856149 4.4753476c-.2839907.1902023-.6180975.2964918-.9856149.2964918-.8074246 0-1.4867749-.5370417-1.7150812-1.2698799-.050116-.1678255-.0779582-.3468394-.0779582-.5314475 0-.878287.6292343-1.6167194 1.4645011-1.7733565.0111369-.0167826.0222738-.0391593.0389792-.0615361.0111369.0167826.0167053.0335651.0278422.0503477.0890951-.0111884.1781902-.0223768.2672854-.0223768.9911833 0 1.7930394.8111568 1.7930394 1.8013275-.0055684.637737-.3285383 1.1915613-.812993 1.5104298z"/></g><path d="m36.7294664 33.8056574c-3.8032483-.1230721-7.612065-.3356511-11.4153133-.3244627-1.6816705.0055942-2.7842227-.425158-3.3466357-2.0810367-.1336427-.3915929-.6013921-.8559102-.9856148-.9286346-.8129931-.1622314-1.6705337-.0951011-2.511369-.1230721-.0167053.1790139-.050116.2685209-.0222737.3244627 1.9322505 3.6474084 3.8589327 7.3004109 5.8301624 10.9254425.1559164.2853034.6682134.5090708 1.0245939.5314475 1.8041764.0951012 3.6083527.151043 5.412529.1957965.4343388 1.0964602 1.5034803 1.879646 2.7508121 1.879646 1.6315545 0 2.9568446-1.3314159 2.9568446-2.970512s-1.3252901-2.970512-2.9568446-2.970512c-.9744779 0-1.8431554.4755057-2.3777262 1.2083439-1.3475638-.0447535-2.6617169-.089507-3.9703016-.1454488-.3563805-.0167826-.8686775-.0951012-1.024594-.3356511-.5234339-.78878-.924362-1.6614728-1.4645012-2.6908028.6403713.0223768 1.0190256.0335651 1.4032483.0447535 3.1071926.1006953 6.2143851.2069848 9.3215777.2853034.3953597.0111884.9689095-.0167825 1.1582367-.2629267.562413-.7160556.9744779-1.5495891 1.5535963-2.5117888-.5846868-.0223768-.9633411-.0335652-1.3364269-.0503477zm-3.836659 5.7172566c.1837587-.061536.3786543-.1006953.5846868-.1006953.2450116 0 .4733179.0503477.6904872.1398546.1280743.0055942.2505801.0055942.3786543.0111884-.0278422.0503477-.0556844.0951011-.0890951.1454488.4900232.3244627.812993.878287.812993 1.5104298 0 .9957649-.8074246 1.8013275-1.7930394 1.8013275-.5679814 0-1.07471-.2685209-1.4032483-.6824906-.2450116-.3076801-.3897911-.6936788-.3897911-1.1188369-.0055685-.7943742.50116-1.4656763 1.2083526-1.7062263z" fill="#ef9a3e"/><path d="m19.812529 12.2121049c-4.1039443-.2293615-8.2134571-.4699115-12.32296984-.6489254-.32296983-.0167825-.77958236.3076802-.98561484.6097661-1.07470998 1.5887485-2.11600929 3.1998736-3.14060325 4.816593-.1225058-.0167826-.25058005-.0223768-.3786543-.0223768-1.63155452 0-2.95684454 1.3314159-2.95684454 2.970512s1.32529002 2.970512 2.95684454 2.970512c1.63155453 0 2.95684455-1.3314159 2.95684455-2.970512 0-.4475347-.10023202-.8726928-.27842227-1.2530973.77401392-1.1915613 1.52575406-2.3495575 2.28306264-3.4963654.1948956-.2964918.53457077-.6936789.81856149-.7104614.94106728-.0447535 1.89327142.0671302 3.04593972.1342604-.3508121.5370417-.5568446.8615044-.7628771 1.180373-1.6928074 2.6180783-3.39675172 5.2305625-5.0728538 7.8598293-.21160093.3356511-.48445476.8391277-.3786543 1.1356195.3174014.8559102.81299304 1.639096 1.33642692 2.6348609.31740139-.4922882.52343387-.8111568.72946635-1.1244311 2.07703017-3.2054678 4.23201853-6.3661821 6.19211133-9.63878.8686775-1.4488938 1.8041764-2.1705436 3.5081207-1.7957333.4009281.089507 1.0357309-.0727244 1.3030162-.363622.562413-.6153603.9466358-1.3873578 1.4032483-2.092225-.1392111-.1174779-.1948956-.1902023-.2561485-.1957965zm-15.03480278 7.8430468c-.0612529.9342288-.84083527 1.6782554-1.787471 1.6782554-.99118329 0-1.79303944-.8111568-1.79303944-1.8013275 0-.8838811.64037123-1.6223135 1.48120649-1.7733565.10023202-.0167825.20603249-.0279709.31183295-.0279709.9911833 0 1.79303944.8111568 1.79303944 1.8013274-.00556844.0391593-.00556844.0839128-.00556844.1230721z" fill="#ef9a3e"/><path d="m41.0617169 10.4387484c-.8742459-1.63909606-1.787471-3.26140959-2.7118329-4.87812893.3174014-.47550569.5067285-1.04611252.5067285-1.66147282 0-1.63909608-1.32529-2.97051201-2.9568445-2.97051201s-2.9568446 1.33141593-2.9568446 2.97051201c0 1.60553097 1.2807425 2.92016435 2.8677495 2.97051201.6570765 1.17477876 1.2974477 2.31599241 1.9211136 3.46280024.1726219.3132743.3675174.7943742.2450116 1.0573009-.3953596.8615044-.9354988 1.6558786-1.525754 2.6516435-.311833-.5594185-.5011601-.8950695-.6904873-1.2251264-1.525754-2.7187737-3.0403712-5.44314163-4.588399-8.15632115-.1948956-.34683944-.5178655-.82234513-.82413-.86150442-.9020881-.11188369-1.8264501-.03356511-2.9457076-.02797093.2895592.51466499.4733179.83912769.6570766 1.16918458 1.8709976 3.33413401 3.6584686 6.71302152 5.6408352 9.97443112.874246 1.4432996 1.0802784 2.6124842-.0389791 3.9550885-.2617169.3188685-.4176334.9566055-.2839907 1.3258217.2839907.7831859.7851508 1.4880531 1.1972158 2.2208913.1614849-.0783186.2561485-.0951011.2839907-.151043 2.1048724-3.5523072 4.2153132-7.0990202 6.275638-10.6737042.1726218-.274115.100232-.8335335-.0723898-1.152402zm-3.4245939-6.07528443c-.2004641.77199747-.9020882 1.3426043-1.737355 1.3426043-.311833 0-.612529-.08391277-.8686775-.22376739-.5512761-.30768015-.924362-.90066371-.924362-1.57756005 0-.02237673 0-.04475347 0-.06713021.0389792-.96219975.8296984-1.73419722 1.7930395-1.73419722.9911833 0 1.7930394.81115676 1.7930394 1.80132743.0055685.15663717-.0167053.30768016-.0556844.45872314z" fill="#ef9a3e"/></g><path d="m30 21.495992h-6.327l.0066-2.745992-5.6796 5.258183 5.655 5.241817.0066-2.7465765h6.3384z" fill="#161c28" transform="matrix(0 1 -1 0 48 0)"/></g></g></svg>