<svg height="52" viewBox="0 0 292 52" width="292" xmlns="http://www.w3.org/2000/svg"><g fill="none" fill-rule="evenodd"><g fill="#161c28" transform="translate(66 2)"><path d="m5.049 19.5625-4.698-19.305h4.968l2.43 12.069c.07200036.3600018.13049977.7064983.1755 1.0395.04500022.3330017.0675.5804992.0675.7425v.243h.054c.01800009-.5580028.12599901-1.232996.324-2.025l2.97-12.069h3.807l2.889 12.069c.0900004.3600018.1619997.7064983.216 1.0395s.0899999.5804992.108.7425v.243h.054c0-.5580028.0809992-1.232996.243-2.025l2.646-12.069h4.887l-4.887 19.305h-5.265l-2.43-9.747-.378-2.268h-.054c-.0540003.68400342-.179999 1.43999586-.378 2.268l-2.43 9.747zm22.167-6.966c0-2.0880104.6569934-3.82049311 1.971-5.1975 1.3140066-1.37700688 3.068989-2.0655 5.265-2.0655 1.99801 0 3.5684943.62549375 4.7115 1.8765 1.1430057 1.25100626 1.7145 2.8664901 1.7145 4.8465 0 .3240016-.0359996.8099968-.108 1.458h-8.775c.1620008.8100041.544497 1.4264979 1.1475 1.8495s1.300496.6345 2.0925.6345c1.1520058 0 2.429993-.4679953 3.834-1.404l1.728 3.267c-.7380037.6300032-1.6424946 1.1249982-2.7135 1.485s-2.1464946.54-3.2265.54c-2.3580118 0-4.2209932-.7199928-5.589-2.16s-2.052-3.1499901-2.052-5.13zm4.887-1.755h4.158c0-.594003-.1754982-1.08899802-.5265-1.485s-.8144971-.594-1.3905-.594c-1.1880059 0-1.9349985.69299307-2.241 2.079zm11.205 8.721v-19.305h4.671v5.373l-.054 1.188h.054c.396002-.45000225.9404965-.80999865 1.6335-1.08s1.3994964-.405 2.1195-.405c1.8900095 0 3.4064943.6704933 4.5495 2.0115 1.1430057 1.34100671 1.7145 3.1004891 1.7145 5.2785s-.6119939 3.9329933-1.836 5.265-2.7719906 1.998-4.644 1.998c-1.6740084 0-2.9699954-.5489945-3.888-1.647h-.054c.0180001.2340012.027.4949986.027.783v.54zm4.536-6.858c0 .9000045.2384976 1.6784967.7155 2.3355s1.1474957.9855 2.0115.9855c.7740039 0 1.4219974-.296997 1.944-.891s.783-1.4039949.783-2.43-.2519975-1.8539968-.756-2.484c-.5040025-.63000315-1.1609959-.945-1.971-.945-.7740039 0-1.4219974.28799712-1.944.864-.5220026.5760029-.783 1.4309943-.783 2.565zm12.609-8.802v-3.645h4.563v3.645zm-.054 15.66v-13.905h4.671v13.905zm7.803 0v-13.905h4.482v1.215l-.054.864h.054c1.0620053-1.60200801 2.4389915-2.403 4.131-2.403 1.8720094 0 3.1679964.78299217 3.888 2.349h.054c.396002-.64800324.994496-1.2014977 1.7955-1.6605.801004-.45900229 1.6874951-.6885 2.6595-.6885 1.3680068 0 2.4614959.41399586 3.2805 1.242s1.2285 2.15099091 1.2285 3.969v9.018h-4.671v-8.235c0-1.1700058-.3599964-1.755-1.08-1.755-.9360047 0-1.6154979.39149609-2.0385 1.1745-.4230021.7830039-.6345 1.7594942-.6345 2.9295v5.886h-4.671v-8.235c0-1.1700058-.3599964-1.755-1.08-1.755-.9720049 0-1.660498.39599604-2.0655 1.188-.405002.792004-.6075 1.7639942-.6075 2.916v5.886zm23.571-3.915c0-.8820044.2429976-1.6469968.729-2.295s1.129496-1.1429983 1.9305-1.485 1.6334957-.5894992 2.4975-.7425 1.7639953-.2295 2.7-.2295h.405v-.243c0-1.02600513-.6569934-1.539-1.971-1.539-1.2240061 0-2.5019933.44099559-3.834 1.323l-1.62-3.294c.6300032-.48600243 1.4984945-.9089982 2.6055-1.269s2.2004946-.54 3.2805-.54c1.92601 0 3.442494.50399496 4.5495 1.512s1.6605 2.39399118 1.6605 4.158v8.559h-4.266v-.837l.054-.864h-.054c-.4500022.6300032-1.0484963 1.1249982-1.7955 1.485s-1.5254959.54-2.3355.54c-1.3320067 0-2.4209958-.4049959-3.267-1.215-.8460042-.810004-1.269-1.817994-1.269-3.024zm4.617-.432c0 .3420017.1169988.6254989.351.8505s.5579979.3375.972.3375c.6480032 0 1.2059977-.2609974 1.674-.783s.702-1.079997.702-1.674v-.378h-.432c-.8640043 0-1.6244967.1304987-2.2815.3915s-.9855.6794971-.9855 1.2555zm12.096-.783v-4.887h-1.782v-3.645h1.917v-3.996h4.536v3.996h2.916v3.645h-2.916v4.266c0 1.1880059.827992 1.782 2.484 1.782.216001 0 .422999-.0089999.621-.027v4.05c-.702004.0540003-1.124999.081-1.269.081-.432002 0-.850498-.0224998-1.2555-.0675s-.872997-.1304994-1.404-.2565-1.007998-.3149987-1.431-.567-.823498-.5624982-1.2015-.9315-.674999-.850497-.891-1.4445-.324-1.2599963-.324-1.998zm10.341-10.53v-3.645h4.563v3.645zm-.054 15.66v-13.905h4.671v13.905zm7.02-6.966c0-1.9800099.697493-3.68549284 2.0925-5.1165 1.395007-1.43100715 3.280488-2.1465 5.6565-2.1465 1.044005 0 2.065495.17549825 3.0645.5265.999005.35100176 1.822497.87749649 2.4705 1.5795l-1.971 3.132c-.936005-.9000045-2.024994-1.35-3.267-1.35-1.044005 0-1.858497.32849672-2.4435.9855-.585003.6570033-.8775 1.4354955-.8775 2.3355 0 .9180046.305997 1.7234965.918 2.4165s1.466995 1.0395 2.565 1.0395c1.242006 0 2.510994-.5579944 3.807-1.674l1.701 3.267c-.684003.7020035-1.561495 1.2599979-2.6325 1.674s-2.182494.621-3.3345.621c-2.376012 0-4.261493-.7109929-5.6565-2.133s-2.0925-3.1409899-2.0925-5.157zm22.896 6.966v-19.305h4.725v19.305zm8.316 0v-13.905h4.482v1.215l-.054.864h.054c.954005-1.60200801 2.42999-2.403 4.428-2.403 3.330017 0 4.995 1.73698263 4.995 5.211v9.018h-4.671v-8.154c0-1.2240061-.512995-1.836-1.539-1.836-.990005 0-1.741497.35099649-2.2545 1.053-.513003.7020035-.7695 1.5839947-.7695 2.646v6.291zm20.223 0-4.806-13.905h4.914l2.16 7.398.513 2.403h.054c.162001-.9900049.332999-1.7909969.513-2.403l2.133-7.398h4.941l-4.725 13.905zm11.34-6.966c0-2.0880104.656993-3.82049311 1.971-5.1975 1.314007-1.37700688 3.068989-2.0655 5.265-2.0655 1.99801 0 3.568494.62549375 4.7115 1.8765 1.143006 1.25100626 1.7145 2.8664901 1.7145 4.8465 0 .3240016-.036.8099968-.108 1.458h-8.775c.162001.8100041.544497 1.4264979 1.1475 1.8495s1.300496.6345 2.0925.6345c1.152006 0 2.429993-.4679953 3.834-1.404l1.728 3.267c-.738004.6300032-1.642495 1.1249982-2.7135 1.485s-2.146495.54-3.2265.54c-2.358012 0-4.220993-.7199928-5.589-2.16s-2.052-3.1499901-2.052-5.13zm4.887-1.755h4.158c0-.594003-.175498-1.08899802-.5265-1.485s-.814497-.594-1.3905-.594c-1.188006 0-1.934998.69299307-2.241 2.079zm10.152 6.993 1.998-3.051c1.116006.9360047 2.375993 1.404 3.78 1.404.846004 0 1.269-.2429976 1.269-.729 0-.2700013-.224998-.508499-.675-.7155s-.989997-.4184989-1.62-.6345-1.264497-.4814984-1.9035-.7965-1.183498-.7784969-1.6335-1.3905-.675-1.3409958-.675-2.187c0-1.38600693.544495-2.46599613 1.6335-3.24s2.470492-1.161 4.1445-1.161c1.99801 0 3.653993.53099469 4.968 1.593l-1.593 3.24c-.396002-.32400162-.931497-.59399892-1.6065-.81s-1.309497-.324-1.9035-.324c-.864004 0-1.296.22499775-1.296.675 0 .21600108.161998.4184991.486.6075s.724498.3509993 1.2015.486.998997.3239988 1.566.567 1.088998.5129985 1.566.81.877498.7199973 1.2015 1.269.486 1.1744965.486 1.8765c0 1.3320067-.517495 2.4254957-1.5525 3.2805s-2.425491 1.2825-4.1715 1.2825c-2.250011 0-4.139992-.6839932-5.67-2.052zm14.58-3.402v-4.887h-1.782v-3.645h1.917v-3.996h4.536v3.996h2.916v3.645h-2.916v4.266c0 1.1880059.827992 1.782 2.484 1.782.216001 0 .422999-.0089999.621-.027v4.05c-.702004.0540003-1.124999.081-1.269.081-.432002 0-.850498-.0224998-1.2555-.0675s-.872997-.1304994-1.404-.2565-1.007998-.3149987-1.431-.567-.823498-.5624982-1.2015-.9315-.674999-.850497-.891-1.4445-.324-1.2599963-.324-1.998z"/><path d="m6.50390625 33.4677734h.22705078c.80566809.0048829 1.54052402.1928693 2.20458984.5639649.66406583.3710956 1.18041813.8825651 1.54907223 1.5344238.3686542.6518587.5529786 1.3806112.5529786 2.1862793 0 .8105509-.1855451 1.5454069-.5566407 2.2045898-.3710956.659183-.88378576 1.1730939-1.53808591 1.5417481-.65430014.3686542-1.38183193.5578613-2.18261718.5676269h-.25634766v1.4355469h-1.36230469v-1.4355469h-.20507812c-.81543377 0-1.55639315-.185545-2.22290039-.5566406s-1.18408019-.8837858-1.55273438-1.5380859c-.36865418-.6543002-.55297851-1.3891561-.55297851-2.2045899 0-.8154337.18432433-1.5502897.55297851-2.2045898.36865419-.6543001.88622714-1.1669903 1.55273438-1.5380859s1.40746662-.5566407 2.22290039-.5566407h.20507812v-1.508789h1.36230469zm-1.56738281 1.1059571c-.91797334 0-1.64428444.2819796-2.17895508.8459472-.53467064.5639677-.80200195 1.3464306-.80200195 2.3474121 0 1.0058644.26611062 1.7883273.79833984 2.3474122.53222922.5590848 1.26464377.838623 2.19726563.838623h.19042968v-6.3793945zm1.56738281 0v6.3793945h.20507812c.93262186 0 1.66137433-.2868624 2.1862793-.8605957s.78735352-1.3537548.78735352-2.3400879c0-.9765674-.26244855-1.7504854-.78735352-2.3217773-.52490497-.571292-1.26342297-.8569336-2.21557617-.8569336zm6.13486325 4.453125c0-.7763711.1525864-1.4746063.4577637-2.0947266s.7299778-1.0986311 1.2744141-1.4355469c.5444363-.3369157 1.165768-.5053711 1.8640136-.5053711 1.079107 0 1.951901.3735315 2.6184082 1.1206055.6665073.7470741.9997559 1.7407165.9997559 2.980957v.0952149c0 .7714882-.1477036 1.46362-.4431152 2.076416-.2954117.612796-.7177707 1.0900862-1.2670899 1.4318848-.5493191.3417985-1.1804163.5126953-1.8933105.5126953-1.0742241 0-1.9445768-.3735314-2.611084-1.1206055-.6665072-.747074-.9997559-1.7358337-.9997559-2.9663086zm1.3623047.1611328c0 .8789106.2038554 1.58447.6115723 2.1166992s.9533657.7983398 1.6369629.7983398c.68848 0 1.2353495-.2697726 1.640625-.8093261.4052754-.5395535.6079101-1.2951612.6079101-2.2668457 0-.869145-.2062967-1.5734837-.6188964-2.1130371-.4125998-.5395535-.96069-.8093262-1.6442872-.8093262-.6689486 0-1.208494.2661106-1.6186523.7983398-.4101583.5322293-.6152344 1.2939404-.6152344 2.2851563zm14.4258789 3.8745117h-1.3549804v-3.3837891h-3.6401368v3.3837891h-1.3623046v-7.9248047h1.3623046v3.4350586h3.6401368v-3.4350586h1.3549804zm2.509375-1.105957.46875-.5786133c.5273464-.6835972.8276364-1.7089776.9008789-3.0761719l.1245118-3.1640625h5.1049804v6.8188477h1.0180664v3.4350586h-1.3549804v-2.3291016h-5.5297852v2.3291016h-1.3549805l.0073243-3.4350586zm1.6040039 0h3.6401368v-5.5664063h-2.4389649l-.0805664 1.8896485c-.0830082 1.5771563-.4565396 2.80273-1.1206055 3.6767578zm18.509961 1.105957h-1.3549805v-6.8041992h-3.6474609v6.8041992h-1.3623047v-7.9248047h6.3647461zm9.2696289-3.8745117c0 1.2060607-.2758761 2.1777307-.8276367 2.915039-.5517606.7373084-1.2988234 1.1059571-2.2412109 1.1059571-.9619189 0-1.7187473-.3051728-2.2705079-.9155274v3.815918h-1.3549804v-10.9716797h1.2377929l.065918.8789063c.5517606-.6835972 1.3183545-1.0253907 2.2998047-1.0253907.9521532 0 1.7053195.3588832 2.2595215 1.0766602s.8312988 1.7163022.8312988 2.9956055zm-1.3549805-.1538086c0-.8935592-.1904277-1.5991185-.571289-2.1166992s-.903317-.7763672-1.5673828-.7763672c-.8203166 0-1.4355449.3637659-1.8457032 1.0913086v3.7866211c.4052755.7226598 1.0253865 1.0839843 1.8603516 1.0839843.6494173 0 1.1657696-.2575657 1.5490723-.772705s.5749511-1.2805125.5749511-2.2961426zm8.36875 4.0283203c-.0781253-.1562508-.1416013-.4345683-.1904296-.8349609-.629886.6543001-1.3818316.9814453-2.2558594.9814453-.7812539 0-1.4221167-.2209451-1.9226074-.6628418-.5004908-.4418968-.7507325-1.0021939-.7507325-1.6809082 0-.8251995.3137176-1.4660622.9411622-1.9226074.6274445-.4565453 1.510004-.6848145 2.647705-.6848145h1.3183594v-.6225586c0-.4736352-.1416001-.8508287-.4248047-1.1315918-.2832045-.2807631-.7006808-.4211426-1.2524414-.4211426-.4834008 0-.8886702.1220691-1.2158203.366211-.3271501.2441418-.4907227.539549-.4907227.8862304h-1.3623046c0-.3955098.1403794-.777586.4211425-1.1462402.2807632-.3686542.6616187-.6603993 1.1425782-.8752441.4809594-.2148449 1.0095186-.3222657 1.5856933-.3222657.9130905 0 1.6284154.2282692 2.1459961.6848145.5175807.4565452.7861327 1.0852011.8056641 1.8859863v3.647461c0 .7275427.0927725 1.3061502.2783203 1.7358398v.1171875zm-2.2485351-1.0327148c.4248068 0 .8276348-.1098622 1.2084961-.3295899.3808613-.2197276.6567374-.5053693.8276367-.8569336v-1.6259765h-1.0620117c-1.6601646 0-2.4902344.4858349-2.4902344 1.4575195 0 .4248068.1416002.7568347.4248047.9960937s.6469704.3588868 1.0913086.3588868zm6.0396484 1.0327148v-7.9248047h3.0908203c1.0546928 0 1.8640109.1843243 2.4279786.5529785.5639676.3686542.8459472.9094203.8459472 1.6223145 0 .3662127-.1098622.69702-.3295898.9924316-.2197277.2954117-.5444315.5212395-.9741211.6774903.478518.1123052.8630356.3320296 1.1535644.6591796.2905288.3271501.4357911.7177712.4357911 1.171875 0 .7275427-.2673314 1.2841778-.802002 1.6699219s-1.2902783.5786133-2.2668457.5786133zm1.3549805-3.4790039v2.3876953h2.2412109c.5664091 0 .9899889-.1049794 1.270752-.3149414s.4211426-.5053692.4211426-.8862305c0-.7910195-.5810489-1.1865234-1.7431641-1.1865234zm0-1.0839844h1.7504883c1.2695376 0 1.9042969-.37109 1.9042969-1.1132812s-.60058-1.1254882-1.8017579-1.1499024h-1.8530273zm12.6167969-3.3618164h1.3549805v7.9248047h-1.3549805v-5.7788086l-3.6547852 5.7788086h-1.3549804v-7.9248047h1.3549804v5.7861328zm10.4268555 0v7.9248047h-1.3623047v-6.8041992h-2.6953125l-.1611328 2.9663086c-.0878911 1.3623115-.3161603 2.3364228-.6848145 2.9223633-.3686542.5859404-.9533651.8911131-1.7541504.9155273h-.5419922v-1.1938477l.3881836-.0292968c.4394553-.0488284.7543936-.3027321.9448242-.7617188.1904307-.4589867.3124998-1.3085875.366211-2.5488281l.1464844-3.3911133zm4.0547851 2.7319336h2.0581053c.898442.0097657 1.608884.2441383 2.131348.703125.522463.4589867.783691 1.081539.783691 1.8676758 0 .7910196-.268552 1.4257788-.805664 1.9042969-.537112.478518-1.259761.7177734-2.167969.7177734h-3.3544917v-7.9248047h1.3549804zm0 1.105957v2.9809571h2.0141603c.507815 0 .900877-.130614 1.179199-.3918457.278322-.2612318.417481-.6188942.417481-1.0729981 0-.4394553-.135497-.7995591-.406495-1.0803222-.270997-.2807632-.650632-.4260254-1.138916-.4357911zm13.5396483 4.0869141h-1.35498v-3.3837891h-3.640137v3.3837891h-1.362305v-7.9248047h1.362305v3.4350586h3.640137v-3.4350586h1.35498zm4.054785-5.1928711h2.058106c.898442.0097657 1.608884.2441383 2.131347.703125.522464.4589867.783692 1.081539.783692 1.8676758 0 .7910196-.268552 1.4257788-.805664 1.9042969-.537112.478518-1.259761.7177734-2.167969.7177734h-3.354492v-7.9248047h1.35498zm7.800293 5.1928711h-1.362304v-7.9248047h1.362304zm-7.800293-4.0869141v2.9809571h2.01416c.507816 0 .900878-.130614 1.1792-.3918457.278321-.2612318.41748-.6188942.41748-1.0729981 0-.4394553-.135497-.7995591-.406494-1.0803222-.270997-.2807632-.650632-.4260254-1.138916-.4357911zm13.224707-.9448242 1.757813-2.8930664h1.582031l-2.592773 3.918457 2.67334 4.0063477h-1.567383l-1.831055-2.9663086-1.831055 2.9663086h-1.574707l2.67334-4.0063477-2.592773-3.918457h1.567383zm14.415723-2.8930664h1.354981v7.9248047h-1.354981v-5.7788086l-3.654785 5.7788086h-1.354981v-7.9248047h1.354981v5.7861328zm10.404883 7.9248047h-1.354981v-3.3837891h-3.640136v3.3837891h-1.362305v-7.9248047h1.362305v3.4350586h3.640136v-3.4350586h1.354981zm2.699805 0v-7.9248047h3.09082c1.054693 0 1.864011.1843243 2.427978.5529785.563968.3686542.845948.9094203.845948 1.6223145 0 .3662127-.109863.69702-.32959.9924316-.219728.2954117-.544432.5212395-.974121.6774903.478518.1123052.863035.3320296 1.153564.6591796.290529.3271501.435791.7177712.435791 1.171875 0 .7275427-.267331 1.2841778-.802002 1.6699219-.53467.3857441-1.290278.5786133-2.266845.5786133zm1.35498-3.4790039v2.3876953h2.241211c.566409 0 .989989-.1049794 1.270752-.3149414s.421142-.5053692.421142-.8862305c0-.7910195-.581048-1.1865234-1.743164-1.1865234zm0-1.0839844h1.750488c1.269538 0 1.904297-.37109 1.904297-1.1132812s-.60058-1.1254882-1.801758-1.1499024h-1.853027zm10.778418 4.7094727c-1.074224 0-1.948239-.3527797-2.62207-1.0583496-.673832-.70557-1.010743-1.649164-1.010743-2.8308106v-.2490234c0-.7861368.150145-1.488034.45044-2.1057129.300294-.6176789.720212-1.1010725 1.259766-1.4501953.539553-.3491229 1.124264-.5236817 1.75415-.5236817 1.030279 0 1.831052.3393521 2.402344 1.0180664.571292.6787144.856933 1.6503843.856933 2.9150391v.5639648h-5.368652c.019531.781254.247801 1.4123512.684814 1.8933106.437014.4809594.992429.7214355 1.66626.7214355.478518 0 .883788-.0976552 1.21582-.2929687.332033-.1953135.622558-.4541.871583-.7763672l.827636.6445313c-.664066 1.0205129-1.660149 1.5307617-2.988281 1.5307617zm-.168457-7.1044922c-.546878 0-1.005858.1989726-1.376953.5969238-.371096.3979512-.600586.955807-.688477 1.673584h3.969727v-.1025391c-.039063-.68848-.224608-1.2219219-.556641-1.6003418-.332033-.3784198-.781247-.5676269-1.347656-.5676269zm8.405371 5.9985351c.483401 0 .90576-.1464829 1.26709-.4394531s.561523-.6591775.600586-1.0986328h1.281738c-.024414.4541038-.180663.8862284-.46875 1.2963867s-.672605.7373035-1.153564.9814453c-.48096.2441419-.989988.366211-1.5271.366211-1.079107 0-1.937253-.3601038-2.574463-1.0803223-.63721-.7202184-.95581-1.705316-.95581-2.9553223v-.2270507c0-.7714883.1416-1.4575166.424804-2.0581055.283205-.6005889.689695-1.0668929 1.219483-1.3989258s1.156002-.4980469 1.878662-.4980469c.888676 0 1.627194.2661107 2.215576.7983399s.902099 1.2231403.941162 2.0727539h-1.281738c-.039063-.5126979-.233153-.9338363-.582276-1.2634277-.349122-.3295915-.780026-.4943848-1.292724-.4943848-.68848 0-1.221922.2478002-1.600342.7434082-.37842.4956079-.567627 1.2121535-.567627 2.1496582v.2563476c0 .9130906.187986 1.6162085.563965 2.109375.375978.4931666.913082.7397461 1.611328.7397461zm10.961524-5.8666992h-2.658692v6.8261719h-1.35498v-6.8261719h-2.607422v-1.0986328h6.621094zm6.845312-1.0986328h1.35498v7.9248047h-1.35498v-5.7788086l-3.654785 5.7788086h-1.354981v-7.9248047h1.354981v5.7861328zm4.047461 0h1.362305v6.8188477h3.647461v-6.8188477h1.35498v6.8188477h.944824l-.131836 3.4570312h-1.21582v-2.3510742h-5.961914zm14.294043 0h1.35498v7.9248047h-1.35498v-5.7788086l-3.654785 5.7788086h-1.354981v-7.9248047h1.354981v5.7861328zm9.057226 0h1.354981v7.9248047h-1.354981v-5.7788086l-3.654785 5.7788086h-1.35498v-7.9248047h1.35498v5.7861328zm.366211-2.8857422c0 .5908233-.201414 1.0656721-.604248 1.4245606s-.931393.5383301-1.585693.5383301-1.18408-.1806623-1.589355-.5419922c-.405276-.36133-.607911-.834958-.607911-1.4208985h1.105957c0 .3417986.092773.6091299.278321.802002.185548.192872.456541.2893066.812988.2893066.341799 0 .60913-.0952139.802002-.2856445.192872-.1904307.289307-.4589827.289307-.8056641z" opacity=".8"/></g><g fill-rule="nonzero"><g transform="translate(0 .613333)"><g fill="#161c28"><path d="m34.6989224 14.8663756c-2.3800938-4.1649243-4.7472524-8.32984856-7.1726197-12.46228514-.1940294-.32487709-.7955205-.56528613-1.2094499-.57828122-2.1989997-.04548279-4.4044671-.04548279-6.6034669-.01949262-.5820881-1.0720944-1.7203939-1.79981908-3.0203908-1.79981908-1.8950204 0-3.4343202 1.54641495-3.4343202 3.45019469 0 1.90377975 1.5392998 3.45019469 3.4343202 3.45019469 1.2870616 0 2.4124321-.71472959 3.0009879-1.77382891 1.5651704 0 3.0915349 0 4.6178994.01949263.4139294.00649754 1.0089529.0779705 1.2029823.35086726.6402969.89666076 1.1318381 1.8972822 1.8044733 3.06683972h-1.6298469c-3.6089466 0-7.2178933-.01299508-10.8268399.01949263-.4592029.00649754-1.1189028.05847787-1.3388028.35086725-.6273617.85117798-1.0736293 1.8323068-1.7074586 2.9758741h1.5522351c4.4238701 0 8.8477401.1039607 13.2651426-.0519803 1.9532291-.0649754 3.2467584.3898525 3.9646671 2.2936323.1681589.4483303.7243764.9681337 1.1771117 1.0461042.950744.1624385 1.9467615.0519803 2.9169085.0519803.0064676-.2209164.0452735-.3313746.0064676-.3898525zm-16.7641392-9.73981513c-.3492529.25990167-.7825852.41584268-1.2482557.41584268-1.1512411 0-2.0825822-.94214356-2.0825822-2.09220846 0-1.15656244.9378088-2.09220846 2.0825822-2.09220846.5238793 0 1.0024851.19492626 1.3646733.51330581.4398.38335496.7179088.9486411.7179088 1.57890265.0064676.68224189-.3233824 1.29301082-.8343264 1.67636578z"/><path d="m23.2382532 44.8070482c-2.0437763-3.9375103-4.0034731-7.927001-6.1830699-11.7930384-.9636793-1.7088535-1.1577087-3.0733372.1875617-4.5872645.3169147-.3573648.5174117-1.0980845.3751235-1.5269223-.2975117-.9226509-.8537293-1.7543363-1.3064645-2.6185093-.1875618.084468-.2975118.1039606-.3363176.1624385-2.5741233 4.041471-5.1547141 8.082942-7.6770962 12.1569007-.20049703.3248771-.13582057.9746313.05174117 1.3449912.9766146 1.9752527 1.99203503 3.9310127 3.02685843 5.8802753-.4074617.5652861-.6467646 1.2605231-.6467646 2.0142379 0 1.9037798 1.5392998 3.4501947 3.4343202 3.4501947s3.4343202-1.5464149 3.4343202-3.4501947c0-1.8323068-1.4293498-3.3397365-3.2338232-3.4436971-.7373116-1.4229617-1.4552204-2.8069381-2.1601938-4.2039096-.1875618-.3703598-.3945265-.935646-.2457706-1.2345329.4915411-.9811288 1.1512411-1.8842871 1.8691498-3.0213569.3427852.6627492.5497499 1.0526017.7567146 1.4489518 1.6686528 3.2162832 3.3308379 6.4325664 5.0253612 9.6358545.2134323.4093451.5691529.9746312.9248734 1.0266116 1.0412911.1624385 2.1149203.1104582 3.4149173.1429459-.3039794-.6042714-.5044765-.9941239-.7114411-1.3839764zm-8.0134138-.779705s.0064676 0 0 0c.6144264.3638623 1.0283558 1.0396067 1.0283558 1.8063166 0 1.1565624-.9378088 2.0922084-2.0825822 2.0922084s-2.0825821-.9421435-2.0825821-2.0922084c0-.2144189.0323383-.4158427.0905471-.6107689.2587058-.8576756 1.0542263-1.4814396 1.992035-1.4814396.3880588 0 .750247.1039607 1.0542264.2858919z"/><path d="m52.2844527 23.7355202c-1.8950204 0-3.4343202 1.5464149-3.4343202 3.4501946 0 .7342223.2263676 1.4164642.6208941 1.9752528-.6726353 1.1175771-1.3388028 2.2091642-2.011438 3.2942536-.2199.3508673-.5950235.8251878-.9248735.851178-1.0930322.0844681-2.1989997-.0129951-3.5442701-.0389852.3815911-.6367591.6144264-1.0201141.8472616-1.3969715 1.8691498-3.0993275 3.7512349-6.1986549 5.6009817-9.3109774.2328353-.3963501.530347-.9941239.3945264-1.3319961-.400994-.9811288-1.0024851-1.871292-1.6492498-3.0083618-.3557205.5847787-.5820881.9616362-.8019881 1.331996-2.2895468 3.801062-4.6761083 7.5501436-6.8363021 11.4226785-.950744 1.7088535-2.011438 2.5860216-4.0034731 2.2156618-.4721382-.0844681-1.2029822.1234533-1.5004939.467823-.6273617.7342222-1.0477587 1.643878-1.5522352 2.4820609.1681588.1169558.239303.2079214.3104471.2079214 4.7731229.1169557 9.5527136.240409 14.3258365.2988869.3751235.0064975.8990029-.3898525 1.1189028-.7407198 1.0994999-1.7348436 2.1601939-3.4956775 3.2079526-5.2630088 1.810941-.0909656 3.2596937-1.5983953 3.2596937-3.4436972.0064677-1.9167748-1.5328321-3.4631897-3.4278525-3.4631897zm1.1447734 5.1980334c-.32985.2209164-.7179088.3443697-1.1447734.3443697-.9378087 0-1.7268616-.623764-1.9920351-1.474942-.0582088-.1949262-.090547-.4028476-.090547-.6172665 0-1.020114.730844-1.8777895 1.700991-2.0597207.0129353-.0194926.0258705-.0454828.0452735-.071473.0129353.0194927.0194029.0389853.0323382.0584779.1034824-.0129951.2069647-.0259902.310447-.0259902 1.1512411 0 2.0825821.9421436 2.0825821 2.0922085-.0064676.7407198-.3815911 1.3839764-.9442763 1.7543363z"/></g><path d="m42.660595 39.264645c-4.4174024-.1429459-8.8412725-.3898525-13.2586749-.3768574-1.9532292.0064976-3.2338232-.4938132-3.8870554-2.4170855-.1552236-.454828-.6985058-.9941239-1.1447734-1.078592-.9442764-.1884287-1.9402939-.1104582-2.9169085-.1429459-.019403.2079213-.0582088.311882-.0258706.3768574 2.2442733 4.2363973 4.4820789 8.4792921 6.7716257 12.6896991.1810941.3313747.7761175.5912764 1.1900469.6172665 2.0955174.1104582 4.1910348.1754336 6.2865522.227414.5044764 1.2735182 1.7462645 2.183174 3.1950173 2.183174 1.8950203 0 3.4343202-1.5464149 3.4343202-3.4501947 0-1.9037797-1.5392999-3.4501947-3.4343202-3.4501947-1.1318381 0-2.140791.5522911-2.761685 1.4034691-1.5651704-.0519804-3.0915349-.1039607-4.6114318-.1689361-.4139294-.0194926-1.0089528-.1104582-1.1900469-.3898525-.6079588-.9161534-1.0736293-1.9297699-1.700991-3.1253176.7437793.0259901 1.1835793.0389852 1.6298469.0519803 3.6089466.1169558 7.2178932.2404091 10.8268399.3313746.4592028.0129951 1.1253704-.0194926 1.3452704-.3053844.6532323-.8316854 1.1318381-1.7998191 1.8044733-2.9173963-.6791029-.0259902-1.1189028-.0389852-1.5522351-.0584779zm-4.4562083 6.6404877c.2134323-.0714729.4397999-.1169557.6791029-.1169557.2845764 0 .5497499.0584779.8019881.1624385.1487559.0064976.2910441.0064976.4397999.0129951-.0323382.0584779-.0646764.1104582-.1034823.1689361.5691529.3768574.9442764 1.0201141.9442764 1.7543363 0 1.1565624-.9378087 2.0922084-2.0825821 2.0922084-.6597 0-1.2482558-.311882-1.6298469-.7927001-.2845764-.3573648-.4527352-.8056951-.4527352-1.2995083-.0064677-.9226509.5820881-1.702356 1.4034792-1.9817503z" fill="#ef9a3e"/><path d="m23.0118855 14.1841337c-4.7666553-.2663992-9.5397783-.5457935-14.31290123-.7537148-.37512348-.0194926-.90547048.3573648-1.14477339.708232-1.24825574 1.8453019-2.4577056 3.7165939-3.64775251 5.5943835-.14228822-.0194926-.29104409-.0259902-.43979995-.0259902-1.89502037 0-3.43432019 1.546415-3.43432019 3.4501947 0 1.9037798 1.53929982 3.4501947 3.43432019 3.4501947 1.89502036 0 3.43432018-1.5464149 3.43432018-3.4501947 0-.5198033-.11641763-1.0136165-.32338231-1.4554493.89900283-1.3839764 1.77213508-2.7289676 2.65173498-4.0609636.22636762-.3443698.62089405-.8056952.95074403-.8251878 1.0930322-.0519804 2.1989997.0779705 3.5378025.155941-.4074617.623764-.6467646 1.0006214-.8860675 1.3709813-1.9661645 3.0408495-3.94526428 6.0752015-5.89202582 9.1290462-.24577056.3898525-.56268523.9746313-.43979995 1.319001.36865584.9941239.94427636 1.9037797 1.55223511 3.0603422.36865584-.5717837.60795876-.9421436.84726167-1.3060059 2.41243209-3.7230915 4.91541119-7.3942026 7.19202269-11.1952646 1.0089528-1.6828633 2.0955174-2.5210462 4.0746172-2.0857109.4656705.1039607 1.2029822-.084468 1.5134292-.4223402.6532323-.7147296 1.0994999-1.6113903 1.6298469-2.4300806-.1616912-.1364484-.2263677-.2209164-.2975118-.227414zm-17.46264497 9.1095536c-.07114411 1.0850895-.9766146 1.9492626-2.07611447 1.9492626-1.15124104 0-2.08258211-.9421436-2.08258211-2.0922085 0-1.0266116.74377933-1.8842871 1.72039392-2.0597208.11641763-.0194926.23930291-.0324877.36218819-.0324877 1.15124104 0 2.08258211.9421436 2.08258211 2.0922085-.00646764.0454828-.00646764.0974631-.00646764.1429459z" fill="#ef9a3e"/><path d="m47.6924238 12.124413c-1.0154204-1.9037798-2.0761144-3.78806688-3.1497437-5.66585646.3686558-.55229105.5885558-1.21504032.5885558-1.92976991 0-1.90377975-1.5392998-3.45019469-3.4343202-3.45019469s-3.4343202 1.54641494-3.4343202 3.45019469c0 1.86479449 1.4875587 3.39171681 3.3308379 3.45019469.7631822 1.36448377 1.5069615 2.68998228 2.2313379 4.02197838.2004971.3638623.4268647.9226509.2845765 1.2280354-.4592029 1.0006214-1.0865646 1.9232724-1.7721351 3.0798348-.3621882-.6497542-.5820882-1.0396067-.8019882-1.4229617-1.772135-3.1578053-3.5313348-6.32210812-5.3293405-9.47341589-.2263676-.40284759-.6014911-.95513864-.9572117-1.00062143-1.0477587-.12995084-2.1213879-.03898526-3.4213849-.03248771.3363177.59777384.54975.97463126.7631823 1.35798623 2.1731292 3.87253491 4.2492436 7.7970501 6.5517257 11.585117 1.0154205 1.6763658 1.2547234 3.034352-.0452735 4.5937621-.3039794.3703598-.4850735 1.1110796-.32985 1.5399174.32985.9096558.9119382 1.7283461 1.390544 2.5795241.1875617-.0909656.2975117-.1104583.3298499-.1754337 2.4447703-4.125939 4.8960083-8.2453805 7.2890374-12.3973097.2004971-.3183796.1164177-.9681337-.0840794-1.3384936zm-3.9776025-7.0563304c-.2328352.89666076-1.0477587 1.55941003-2.0179056 1.55941003-.3621882 0-.7114411-.09746313-1.0089528-.25990168-.640297-.35736479-1.0736293-1.04610422-1.0736293-1.83230678 0-.02599017 0-.05198034 0-.0779705.0452735-1.11757719.9636793-2.01423796 2.0825821-2.01423796 1.151241 0 2.0825821.94214356 2.0825821 2.09220846.0064677.18193117-.0194029.3573648-.0646765.53279843z" fill="#ef9a3e"/></g><path d="m34.8444444 24.9671966h-7.3486933l.0076658-3.1894188-6.5967502 6.1072822 6.5681777 6.0882733.0076658-3.1900977h7.3619342z" fill="#161c28" transform="matrix(0 1 -1 0 55.751112 -2)"/></g></g></svg>