<svg height="64" viewBox="0 0 64 64" width="64" xmlns="http://www.w3.org/2000/svg"><g fill="none" fill-rule="nonzero"><g transform="translate(0 3)"><g fill="#161c28"><path d="m39.8329466 17.0659924c-2.7322505-4.7811631-5.4496519-9.56232615-8.2338747-14.30619468-.2227378-.37294563-.913225-.64892541-1.388399-.66384323-2.524362-.05221239-5.0561485-.05221239-7.5805105-.02237674-.6682134-1.23072061-1.974942-2.06611884-3.4672854-2.06611884-2.175406 0-3.9424594 1.77522124-3.9424594 3.96068268s1.7670534 3.96068268 3.9424594 3.96068268c1.4774942 0 2.7693736-.8204804 3.4450116-2.03628318 1.7967518 0 3.5489559 0 5.3011601.02237674.475174.00745891 1.1582367.08950695 1.3809745.40278129.7350348 1.02932996 1.2993039 2.17800252 2.0714617 3.52060682h-1.8709977c-4.1429234 0-8.2858468-.01491782-12.4287703.02237674-.5271461.00745891-1.2844547.06713022-1.5368909.40278132-.7201856.9771175-1.2324826 2.1034134-1.9600928 3.416182h1.7819025c5.0784223 0 10.1568446.1193426 15.2278423-.0596713 2.2422273-.0745891 3.7271461.4475348 4.5512761 2.6329962.1930394.514665.8315545 1.111378 1.3512761 1.200885 1.0914153.1864728 2.2348027.0596713 3.3484918.0596713.0074246-.2536031.0519722-.3804046.0074246-.4475348zm-19.2445475-11.18091023c-.4009281.29835652-.8983759.47737042-1.4329467.47737042-1.3215777 0-2.3907192-1.08154235-2.3907192-2.40176991 0-1.32768647 1.0765661-2.40176991 2.3907192-2.40176991.6013921 0 1.1508121.22376738 1.5665894.58925411.5048724.44007585.8241299 1.08900126.8241299 1.8125158.0074246.78318584-.3712297 1.48432364-.9577726 1.92439949z"/><path d="m26.6765661 51.4366625c-2.3461717-4.5201012-4.5958236-9.0998736-7.0979118-13.5379267-1.1062645-1.9616941-1.3290023-3.5280658.2153132-5.2659924.3638051-.4102402.5939675-1.2605563.4306265-1.7528445-.3415314-1.0591657-.9800464-2.0139065-1.499768-3.0059419-.2153132.0969659-.3415313.1193426-.3860789.1864728-2.9549884 4.6394438-5.9174014 9.2788875-8.81299304 13.9556258-.23016241.3729457-.15591647 1.1188369.05939675 1.543995 1.12111369 2.2675095 2.28677499 4.5126422 3.47470999 6.750316-.4677494.6489254-.7424594 1.4470291-.7424594 2.312263 0 2.1854614 1.7670534 3.9606827 3.9424594 3.9606827s3.9424594-1.7752213 3.9424594-3.9606827c0-2.1034134-1.6408353-3.8338812-3.712297-3.9532238-.8464037-1.6335019-1.6705336-3.2222503-2.4798144-4.8259165-.2153132-.4251581-.4529002-1.0740835-.2821346-1.4171935.5642692-1.1262958 1.3215778-2.1630847 2.1457077-3.4683944.3935035.7608091.6310905 1.2083439.8686775 1.6633375 1.9155452 3.6921619 3.8236659 7.3843237 5.7689095 11.0615677.2450116.4699115.6533643 1.1188369 1.0617169 1.1785082 1.1953597.1864728 2.4278423.1268015 3.9201857.1640961-.348956-.6936789-.5791184-1.1412137-.8167054-1.5887484zm-9.1990719-.8950696s.0074246 0 0 0c.7053364.4176991 1.1805104 1.1934261 1.1805104 2.0735778 0 1.3276864-1.0765661 2.4017699-2.3907192 2.4017699s-2.3907193-1.0815424-2.3907193-2.4017699c0-.2461442.037123-.4773704.1039443-.7011378.2969838-.9845765 1.2102089-1.7006321 2.286775-1.7006321.4454756 0 .8612529.1193426 1.2102088.3281921z"/><path d="m60.0204176 27.2474083c-2.175406 0-3.9424594 1.7752213-3.9424594 3.9606827 0 .8428572.2598608 1.626043.7127611 2.2675095-.7721578 1.282933-1.536891 2.5360303-2.3090488 3.7816688-.2524362.4027813-.6830626.9472819-1.0617169.9771176-1.2547564.0969658-2.524362-.0149179-4.0686775-.0447535.438051-.7309735.7053364-1.1710493.9726218-1.6036663 2.1457077-3.5579014 4.3062645-7.1158028 6.4296984-10.688622.2672854-.4549936.6088167-1.1412136.4529002-1.5290771-.4603248-1.1262958-1.150812-2.1481669-1.8932714-3.4534766-.4083527.6713022-.6682135 1.1039191-.9206497 1.5290771-2.6283063 4.363464-5.3679814 8.6672567-7.8477958 13.1127687-1.0914153 1.961694-2.3090487 2.9686473-4.5958237 2.5434892-.5419953-.0969658-1.3809745.1417194-1.7225058.5370417-.7201856.8428572-1.2027842 1.887105-1.7819025 2.8493047.1930394.1342604.2747099.2386852.3563805.2386852 5.4793503.1342605 10.9661253.2759798 16.4454756.34311.4306265.0074589 1.0320186-.4475348 1.2844548-.850316 1.2621809-1.9915297 2.4798144-4.0128951 3.6825986-6.0417194 2.0788863-.1044248 3.7419953-1.8348925 3.7419953-3.9532238.0074246-2.2003792-1.7596287-3.9756005-3.9350348-3.9756005zm1.3141532 5.9671303c-.3786543.253603-.82413.3953223-1.3141532.3953223-1.0765661 0-1.9823666-.7160556-2.2867749-1.6931732-.0668214-.2237673-.1039443-.4624526-.1039443-.7085967 0-1.1710493.8389791-2.1556258 1.9526682-2.3644753.0148492-.0223768.0296984-.0522124.0519721-.0820481.0148492.0223768.0222738.0447535.037123.0671303.1187935-.0149179.237587-.0298357.3563805-.0298357 1.3215778 0 2.3907193 1.0815424 2.3907193 2.4017699-.0074246.8503161-.4380511 1.5887484-1.0839907 2.0139065z"/></g><path d="m48.9726218 45.0742099c-5.0709977-.1640961-10.1494199-.4475348-15.2204176-.432617-2.2422274.0074589-3.712297-.5668774-4.462181-2.7747155-.1781903-.5221239-.8018561-1.1412137-1.3141531-1.2381795-1.0839907-.2163085-2.2273782-.1268016-3.3484919-.1640961-.0222738.2386852-.0668214.3580278-.0296984.4326169 2.5763341 4.8632111 5.1452436 9.7338812 7.7735499 14.5672566.2078886.3804046.8909513.6787611 1.3661253.7085968 2.4055684.1268015 4.8111369.2013906 7.2167053.2610619.5791184 1.4619469 2.0046404 2.5061947 3.6677494 2.5061947 2.1754061 0 3.9424594-1.7752212 3.9424594-3.9606827 0-2.1854614-1.7670533-3.9606827-3.9424594-3.9606827-1.2993039 0-2.4575406.6340076-3.1703016 1.6111252-1.7967517-.0596713-3.5489559-.1193426-5.2937355-.1939317-.475174-.0223768-1.1582366-.1268016-1.3661253-.4475348-.6979118-1.0517067-1.2324826-2.2152971-1.9526682-3.587737.8538283.0298356 1.3587007.0447534 1.8709977.0596713 4.1429234.1342604 8.2858469.2759797 12.4287703.3804045.5271462.0149178 1.2918794-.0223767 1.5443155-.3505689.749884-.9547408 1.299304-2.0661188 2.0714618-3.3490518-.7795824-.0298357-1.2844548-.0447535-1.7819026-.0671302zm-5.1155452 7.6230088c.2450116-.082048.5048724-.1342604.7795823-.1342604.3266822 0 .6310905.0671302.9206497.1864728.1707656.0074589.3341067.0074589.5048724.0149178-.037123.0671302-.074246.1268015-.1187935.1939318.6533642.4326169 1.0839907 1.1710493 1.0839907 2.0139064 0 1.3276865-1.0765661 2.4017699-2.3907193 2.4017699-.7573086 0-1.4329466-.3580278-1.8709976-.9099873-.3266822-.4102402-.5197216-.9249052-.5197216-1.4917826-.0074246-1.0591656.6682134-1.9542351 1.6111369-2.2749684z" fill="#ef9a3e"/><path d="m26.4167053 16.2828066c-5.4719257-.3058154-10.9512761-.6265487-16.43062641-.8652339-.43062645-.0223767-1.03944316.4102402-1.31415314.8130215-1.43294663 2.1183312-2.8213457 4.2664981-4.18747099 6.4221239-.16334107-.0223768-.33410673-.0298357-.50487239-.0298357-2.17540604 0-3.9424594 1.7752213-3.9424594 3.9606827s1.76705336 3.9606827 3.9424594 3.9606827c2.17540603 0 3.94245939-1.7752213 3.94245939-3.9606827 0-.596713-.13364269-1.1635904-.3712297-1.6707965 1.03201857-1.5887484 2.03433875-3.1327433 3.04408354-4.6618204.2598608-.3953224.712761-.9249052 1.0914153-.947282 1.2547564-.0596713 2.524362.089507 4.0612529.179014-.4677494.7160556-.7424594 1.1486725-1.0171694 1.5738305-2.2570765 3.4907712-4.5290023 6.9740835-6.76380507 10.4797725-.28213457.4475348-.64593968 1.1188369-.50487239 1.5141593.42320185 1.1412136 1.08399072 2.1854614 1.78190255 3.5131479.42320186-.6563843.69791183-1.0815424.97262181-1.4992415 2.7693735-4.273957 5.6426914-8.4882427 8.2561485-12.8517067 1.1582367-1.9318584 2.4055684-2.8940581 4.6774942-2.394311.5345708.1193426 1.3809745-.0969658 1.737355-.4848293.749884-.8204804 1.262181-1.8498104 1.8709977-2.7896334-.1856149-.1566371-.2598608-.253603-.3415314-.2610619zm-20.04640368 10.4573957c-.08167053 1.2456384-1.12111368 2.2376738-2.38329466 2.2376738-1.32157773 0-2.39071926-1.0815423-2.39071926-2.4017699 0-1.1785082.85382831-2.1630847 1.974942-2.3644754.13364269-.0223767.27470998-.0372945.41577726-.0372945 1.32157773 0 2.39071926 1.0815423 2.39071926 2.4017699-.0074246.0522124-.0074246.1118837-.0074246.1640961z" fill="#ef9a3e"/><path d="m54.7489559 13.9183312c-1.1656612-2.1854614-2.3832946-4.34854612-3.6157772-6.50417191.4232018-.63400758.675638-1.39481669.675638-2.21529709 0-2.18546144-1.7670534-3.96068268-3.9424594-3.96068268s-3.9424594 1.77522124-3.9424594 3.96068268c0 2.14070796 1.7076566 3.89355246 3.8236659 3.96068268.8761021 1.56637172 1.7299304 3.08798992 2.5614849 4.61706702.2301624.4176991.4900232 1.0591656.3266822 1.4097345-.5271462 1.1486726-1.2473318 2.2078382-2.0343388 3.5355246-.4157773-.7458912-.6682134-1.193426-.9206496-1.6335018-2.0343388-3.6250317-4.0538283-7.25752217-6.1178655-10.87509486-.2598608-.4624526-.6904872-1.09646018-1.0988399-1.14867257-1.2027842-.14917826-2.4352668-.04475348-3.9276102-.03729456.3860789.68621997.6310905 1.11883691.8761021 1.55891276 2.4946636 4.44551203 4.8779582 8.95069533 7.5211137 13.29924143 1.1656612 1.9243995 1.4403712 3.4833123-.0519722 5.2734514-.3489559.425158-.5568445 1.2754741-.3786543 1.7677623.3786543 1.0442478 1.0468678 1.9840708 1.5962877 2.9611884.2153133-.1044248.3415314-.1268016.3786543-.2013907 2.8064966-4.7364096 5.6204177-9.4653603 8.3675174-14.2316055.2301625-.3654868.1336427-1.111378-.0965197-1.5365361zm-4.5661253-8.10037924c-.2672854 1.02932996-1.2027842 1.79013906-2.3164733 1.79013906-.4157773 0-.8167053-.11188369-1.1582367-.29835651-.7350348-.4102402-1.2324825-1.20088495-1.2324825-2.1034134 0-.02983565 0-.0596713 0-.08950695.0519721-1.282933 1.1062645-2.31226296 2.3907192-2.31226296 1.3215777 0 2.3907193 1.08154235 2.3907193 2.40176991.0074246.20884956-.0222738.4102402-.074246.61163085z" fill="#ef9a3e"/></g><path d="m40 28.6613226h-8.436l.0088-3.6613226-7.5728 7.0109107 7.54 6.9890893.0088-3.662102h8.4512z" fill="#161c28" transform="matrix(0 1 -1 0 64 0)"/></g></svg>